<svg width="540" height="312.23" version="1.1" xmlns="http://www.w3.org/2000/svg" xmlns:xlink="http://www.w3.org/1999/xlink"><g transform="scale(.5)"><rect class="a" width="1080" height="624.46" rx="5" ry="5"/><svg version="1.1"><circle class="b" cx="20" cy="20" r="6"/><circle class="c" cx="40" cy="20" r="6"/><circle class="d" cx="60" cy="20" r="6"/></svg><svg x="15" y="50" width="1040" height="564.46" version="1.1" viewBox="0 0 104 56.446"><style>.a{fill:rgb(252,244,220)}.b{fill:#ff5f58}.c{fill:#ffbd2e}.d{fill:#18c132}.e{font-family:Monaco,Consolas,Menlo,'Bitstream Vera Sans Mono','Powerline Symbols',monospace}.f{fill:transparent}.g{fill:rgb(83,104,112);white-space:pre}.h{fill:rgb(71,91,98);white-space:pre}.i{fill:rgb(115,138,5);font-weight:bold;white-space:pre}.j{fill:rgb(33,118,199);font-weight:bold;white-space:pre}.k{fill:rgb(228,86,73);white-space:pre}.l{fill:rgb(166,38,164);white-space:pre}.m{fill:rgb(56,58,66);white-space:pre}.n{fill:rgb(71,91,98);font-weight:bold;white-space:pre}</style><g class="e" font-family="Monaco, Consolas, Menlo, 'Bitstream Vera Sans Mono', 'Powerline Symbols', monospace" font-size="1.67px"><defs><symbol id="a"><rect class="f" width="104" height="26"/></symbol></defs><rect class="a" width="104" height="56.446"/><svg width="104" version="1.1"><svg version="1.1"><use xlink:href="#a"/><text class="g" y="1.67">--</text><text class="g" x="3.006" y="1.67">The</text><text class="g" x="7.0139999" y="1.67">C</text><text class="g" x="9.0179996" y="1.67">compiler</text><text class="g" x="18.035999" y="1.67">identification</text><text class="g" x="33.066002" y="1.67">is</text><text class="g" x="36.071999" y="1.67">GNU</text><text class="g" x="40.080002" y="1.67">9.4.0</text><text class="g" y="3.8410001">--</text><text class="g" x="3.006" y="3.8410001">The</text><text class="g" x="7.0139999" y="3.8410001">CXX</text><text class="g" x="11.022" y="3.8410001">compiler</text><text class="g" x="20.040001" y="3.8410001">identification</text><text class="g" x="35.07" y="3.8410001">is</text><text class="g" x="38.076" y="3.8410001">GNU</text><text class="g" x="42.084" y="3.8410001">9.4.0</text><text class="g" y="6.0120001">--</text><text class="g" x="3.006" y="6.0120001">The</text><text class="g" x="7.0139999" y="6.0120001">ASM</text><text class="g" x="11.022" y="6.0120001">compiler</text><text class="g" x="20.040001" y="6.0120001">identification</text><text class="g" x="35.07" y="6.0120001">is</text><text class="g" x="38.076" y="6.0120001">GNU</text><text class="g" y="8.1829996">--</text><text class="g" x="3.006" y="8.1829996">Found</text><text class="g" x="9.0179996" y="8.1829996">assembler:</text><text class="g" x="20.040001" y="8.1829996">/usr/bin/gcc</text><text class="g" y="10.354">--</text><text class="g" x="3.006" y="10.354">Configuring</text><text class="g" x="15.03" y="10.354">done</text><text class="g" x="20.040001" y="10.354">(3.1s)</text><text class="g" y="12.525">--</text><text class="g" x="3.006" y="12.525">Generating</text><text class="g" x="14.028" y="12.525">done</text><text class="g" x="19.038" y="12.525">(0.0s)</text><text class="g" y="14.696">--</text><text class="g" x="3.006" y="14.696">Build</text><text class="g" x="9.0179996" y="14.696">files</text><text class="g" x="15.03" y="14.696">have</text><text class="g" x="20.040001" y="14.696">been</text><text class="g" x="25.049999" y="14.696">written</text><text class="g" x="33.066002" y="14.696">to:</text><text class="g" x="37.074001" y="14.696">/var/tmp/ascrec/workspace/build</text><text class="h" y="16.867001">--</text><text class="h" x="3.006" y="16.867001">west</text><text class="h" x="8.0159998" y="16.867001">build:</text><text class="h" x="15.03" y="16.867001">building</text><text class="h" x="24.048" y="16.867001">application</text><text class="g" y="19.038">[1/97]</text><text class="g" x="7.0139999" y="19.038">Preparing</text><text class="g" x="17.034" y="19.038">syscall</text><text class="g" x="25.049999" y="19.038">dependency</text><text class="g" x="36.071999" y="19.038">handling</text><text class="g" y="23.379999">[2/97]</text><text class="g" x="7.0139999" y="23.379999">Generating</text><text class="g" x="18.035999" y="23.379999">include/generated/version.h</text><text class="g" y="25.551001">--</text><text class="g" x="3.006" y="25.551001">Zephyr</text><text class="g" x="10.02" y="25.551001">version:</text><text class="g" x="19.038" y="25.551001">3.3.0</text><text class="g" x="25.049999" y="25.551001">(/var/tmp/ascrec/workspace/zephyr),</text><text class="g" x="61.122002" y="25.551001">build:</text><text class="g" x="68.136002" y="25.551001">zephyr-v3.3.0-51-g7ea0860e376d</text><text class="g" y="27.722">[3/97]</text><text class="g" x="7.0139999" y="27.722">Generating</text><text class="g" x="18.035999" y="27.722">../../zephyr/include/generated/version_bridle.h</text><text class="g" y="29.893">--</text><text class="g" x="3.006" y="29.893">Bridle</text><text class="g" x="10.02" y="29.893">version:</text><text class="g" x="19.038" y="29.893">3.3.1</text><text class="g" x="25.049999" y="29.893">(/var/tmp/ascrec/workspace/bridle),</text><text class="g" x="61.122002" y="29.893">build:</text><text class="g" x="68.136002" y="29.893">bridle-v3.3.1</text><text class="g" y="32.063999">[93/97]</text><text class="g" x="8.0159998" y="32.063999">Linking</text><text class="g" x="16.032" y="32.063999">C</text><text class="g" x="18.035999" y="32.063999">executable</text><text class="g" x="29.058001" y="32.063999">zephyr/zephyr_pre0.elf</text><text class="g" y="36.405998">[97/97]</text><text class="g" x="8.0159998" y="36.405998">Linking</text><text class="g" x="16.032" y="36.405998">C</text><text class="g" x="18.035999" y="36.405998">executable</text><text class="g" x="29.058001" y="36.405998">zephyr/zephyr.elf</text><text class="g" y="40.748001">(.venv)</text><text class="i" x="8.0159998" y="40.748001">user@host</text><text class="g" x="17.034" y="40.748001">:</text><text class="j" x="18.035999" y="40.748001">workspace</text><text class="g" x="27.054001" y="40.748001">$</text><text class="k" x="29.058001" y="40.748001">./build/zephyr/zephyr.exe</text><text class="k" x="55.110001" y="40.748001">--stop_at</text><text class="l" x="64.127998" y="40.748001">=</text><text class="m" x="65.129997" y="40.748001">1</text><text class="g" y="42.918999">***</text><text class="g" x="4.0079999" y="42.918999">Booting</text><text class="g" x="12.024" y="42.918999">Zephyr</text><text class="g" x="19.038" y="42.918999">OS</text><text class="g" x="22.044001" y="42.918999">build</text><text class="g" x="28.056" y="42.918999">zephyr-v3.3.0-51-g7ea0860e376d</text><text class="g" x="59.118" y="42.918999">***</text><text class="g" y="45.09">Hello</text><text class="g" x="6.0120001" y="45.09">World!</text><text class="g" x="13.026" y="45.09">native_posix_64</text><text class="g" y="49.431999">Stopped</text><text class="g" x="8.0159998" y="49.431999">at</text><text class="g" x="11.022" y="49.431999">1.010s</text><text class="n" y="53.773998">––––––––––––––––––––––––––––––––––––––––––––––––––––––––––––––––––––––––––––––––––––––––––––––––––––––––</text><text class="g" y="55.945">1️⃣</text><text class="g" x="4.0079999" y="55.945">2️⃣</text></svg></svg></g></svg></g></svg>
