<svg width="540" height="312.23" version="1.1" xmlns="http://www.w3.org/2000/svg" xmlns:xlink="http://www.w3.org/1999/xlink"><g transform="scale(.5)"><rect class="a" width="1080" height="624.46" rx="5" ry="5"/><svg version="1.1"><circle class="b" cx="20" cy="20" r="6"/><circle class="c" cx="40" cy="20" r="6"/><circle class="d" cx="60" cy="20" r="6"/></svg><svg x="15" y="50" width="1040" height="564.46" version="1.1" viewBox="0 0 104 56.446"><style>.a{fill:rgb(252,244,220)}.b{fill:#ff5f58}.c{fill:#ffbd2e}.d{fill:#18c132}.e{font-family:Monaco,Consolas,Menlo,'Bitstream Vera Sans Mono','Powerline Symbols',monospace}.f{fill:transparent}.g{fill:rgb(71,91,98);white-space:pre}.h{fill:rgb(83,104,112);white-space:pre}.i{fill:rgb(115,138,5);font-weight:bold;white-space:pre}.j{fill:rgb(33,118,199);font-weight:bold;white-space:pre}.k{fill:rgb(228,86,73);white-space:pre}.l{fill:rgb(56,58,66);white-space:pre}.m{fill:rgb(166,38,164);white-space:pre}.n{fill:rgb(71,91,98);font-weight:bold;white-space:pre}</style><g class="e" font-family="Monaco, Consolas, Menlo, 'Bitstream Vera Sans Mono', 'Powerline Symbols', monospace" font-size="1.67px"><defs><symbol id="a"><rect class="f" width="104" height="26"/></symbol></defs><rect class="a" width="104" height="56.446"/><svg width="104" version="1.1"><svg version="1.1"><use xlink:href="#a"/><text class="g" y="1.67">--</text><text class="g" x="3.006" y="1.67">west</text><text class="g" x="8.0159998" y="1.67">build:</text><text class="g" x="15.03" y="1.67">building</text><text class="g" x="24.048" y="1.67">application</text><text class="h" y="3.8410001">[1/140]</text><text class="h" x="8.0159998" y="3.8410001">Preparing</text><text class="h" x="18.035999" y="3.8410001">syscall</text><text class="h" x="26.052" y="3.8410001">dependency</text><text class="h" x="37.074001" y="3.8410001">handling</text><text class="h" y="8.1829996">[2/140]</text><text class="h" x="8.0159998" y="8.1829996">Generating</text><text class="h" x="19.038" y="8.1829996">include/generated/version.h</text><text class="h" y="10.354">--</text><text class="h" x="3.006" y="10.354">Zephyr</text><text class="h" x="10.02" y="10.354">version:</text><text class="h" x="19.038" y="10.354">3.4.0</text><text class="h" x="25.049999" y="10.354">(/var/tmp/ascrec/workspace/zephyr),</text><text class="h" x="61.122002" y="10.354">build:</text><text class="h" x="68.136002" y="10.354">v3.4.0-2-gd6c9e937a33e</text><text class="h" y="12.525">[3/140]</text><text class="h" x="8.0159998" y="12.525">Generating</text><text class="h" x="19.038" y="12.525">../../zephyr/include/generated/version_bridle.h</text><text class="h" y="14.696">--</text><text class="h" x="3.006" y="14.696">Bridle</text><text class="h" x="10.02" y="14.696">version:</text><text class="h" x="19.038" y="14.696">3.4.0</text><text class="h" x="25.049999" y="14.696">(/var/tmp/ascrec/workspace/bridle),</text><text class="h" x="61.122002" y="14.696">build:</text><text class="h" x="68.136002" y="14.696">bridle-v3.4.0-1-g4ae9f2aa7ba0</text><text class="h" y="16.867001">[130/140]</text><text class="h" x="10.02" y="16.867001">Linking</text><text class="h" x="18.035999" y="16.867001">C</text><text class="h" x="20.040001" y="16.867001">executable</text><text class="h" x="31.062" y="16.867001">zephyr/zephyr_pre0.elf</text><text class="h" y="21.209">[134/140]</text><text class="h" x="10.02" y="21.209">Linking</text><text class="h" x="18.035999" y="21.209">C</text><text class="h" x="20.040001" y="21.209">executable</text><text class="h" x="31.062" y="21.209">zephyr/zephyr_pre1.elf</text><text class="h" y="25.551001">[140/140]</text><text class="h" x="10.02" y="25.551001">Linking</text><text class="h" x="18.035999" y="25.551001">C</text><text class="h" x="20.040001" y="25.551001">executable</text><text class="h" x="31.062" y="25.551001">zephyr/zephyr.elf</text><text class="h" y="27.722">Memory</text><text class="h" x="7.0139999" y="27.722">region</text><text class="h" x="22.044001" y="27.722">Used</text><text class="h" x="27.054001" y="27.722">Size</text><text class="h" x="33.066002" y="27.722">Region</text><text class="h" x="40.080002" y="27.722">Size</text><text class="h" x="46.091999" y="27.722">%age</text><text class="h" x="51.102001" y="27.722">Used</text><text class="h" x="11.022" y="29.893">FLASH:</text><text class="h" x="25.049999" y="29.893">8746</text><text class="h" x="30.059999" y="29.893">B</text><text class="h" x="38.076" y="29.893">256</text><text class="h" x="42.084" y="29.893">KB</text><text class="h" x="50.099998" y="29.893">3.34%</text><text class="h" x="13.026" y="32.063999">RAM:</text><text class="h" x="25.049999" y="32.063999">3960</text><text class="h" x="30.059999" y="32.063999">B</text><text class="h" x="39.077999" y="32.063999">64</text><text class="h" x="42.084" y="32.063999">KB</text><text class="h" x="50.099998" y="32.063999">6.04%</text><text class="h" x="8.0159998" y="34.235001">IDT_LIST:</text><text class="h" x="27.054001" y="34.235001">0</text><text class="h" x="29.058001" y="34.235001">GB</text><text class="h" x="40.080002" y="34.235001">2</text><text class="h" x="42.084" y="34.235001">KB</text><text class="h" x="50.099998" y="34.235001">0.00%</text><text class="h" y="36.405998">(.venv)</text><text class="i" x="8.0159998" y="36.405998">user@host</text><text class="h" x="17.034" y="36.405998">:</text><text class="j" x="18.035999" y="36.405998">workspace</text><text class="h" x="27.054001" y="36.405998">$</text><text class="k" x="29.058001" y="36.405998">west</text><text class="l" x="34.068001" y="36.405998">build</text><text class="k" x="40.080002" y="36.405998">-t</text><text class="l" x="43.085999" y="36.405998">run</text><text class="m" x="47.094002" y="36.405998">&amp;</text><text class="g" y="38.577">--</text><text class="g" x="3.006" y="38.577">west</text><text class="g" x="8.0159998" y="38.577">build:</text><text class="g" x="15.03" y="38.577">running</text><text class="g" x="23.046" y="38.577">target</text><text class="g" x="30.059999" y="38.577">run</text><text class="h" y="40.748001">[0/1]</text><text class="h" x="6.0120001" y="40.748001">To</text><text class="h" x="9.0179996" y="40.748001">exit</text><text class="h" x="14.028" y="40.748001">from</text><text class="h" x="19.038" y="40.748001">QEMU</text><text class="h" x="24.048" y="40.748001">enter:</text><text class="h" x="31.062" y="40.748001">'CTRL+a,</text><text class="h" x="40.080002" y="40.748001">x'[QEMU]</text><text class="h" x="49.098" y="40.748001">CPU:</text><text class="h" x="54.108002" y="40.748001">cortex-m3</text><text class="h" y="42.918999">qemu-system-arm:</text><text class="h" x="17.034" y="42.918999">warning:</text><text class="h" x="26.052" y="42.918999">nic</text><text class="h" x="30.059999" y="42.918999">stellaris_enet.0</text><text class="h" x="47.094002" y="42.918999">has</text><text class="h" x="51.102001" y="42.918999">no</text><text class="h" x="54.108002" y="42.918999">peer</text><text class="h" y="45.09">Timer</text><text class="h" x="6.0120001" y="45.09">with</text><text class="h" x="11.022" y="45.09">period</text><text class="h" x="18.035999" y="45.09">zero,</text><text class="h" x="24.048" y="45.09">disabling</text><text class="h" y="47.261002">***</text><text class="h" x="4.0079999" y="47.261002">Booting</text><text class="h" x="12.024" y="47.261002">Zephyr</text><text class="h" x="19.038" y="47.261002">OS</text><text class="h" x="22.044001" y="47.261002">build</text><text class="h" x="28.056" y="47.261002">v3.4.0-2-gd6c9e937a33e</text><text class="h" x="51.102001" y="47.261002">***</text><text class="h" y="49.431999">Hello</text><text class="h" x="6.0120001" y="49.431999">World!</text><text class="h" x="13.026" y="49.431999">qemu_cortex_m3</text><text class="n" y="53.773998">––––––––––––––––––––––––––––––––––––––––––––––––––––––––––––––––––––––––––––––––––––––––––––––––––––––––</text><text class="h" y="55.945">1️⃣</text><text class="h" x="4.0079999" y="55.945">2️⃣</text></svg></svg></g></svg></g></svg>
