<?xml version="1.0" encoding="UTF-8" standalone="no"?>
<!-- Created with Inkscape (http://www.inkscape.org/) -->

<svg
   width="300.23401"
   height="208.68314"
   viewBox="0 0 79.436916 55.214079"
   version="1.1"
   id="svg5"
   inkscape:version="1.2.2 (1:1.2.2+202305151915+b0a8486541)"
   sodipodi:docname="architectures-deps-static.svg"
   inkscape:export-filename="venn-arch-exp.svg"
   inkscape:export-xdpi="96"
   inkscape:export-ydpi="96"
   xmlns:inkscape="http://www.inkscape.org/namespaces/inkscape"
   xmlns:sodipodi="http://sodipodi.sourceforge.net/DTD/sodipodi-0.dtd"
   xmlns="http://www.w3.org/2000/svg"
   xmlns:svg="http://www.w3.org/2000/svg">
  <sodipodi:namedview
     id="namedview7"
     pagecolor="#ffffff"
     bordercolor="#111111"
     borderopacity="1"
     inkscape:showpageshadow="0"
     inkscape:pageopacity="0"
     inkscape:pagecheckerboard="1"
     inkscape:deskcolor="#d1d1d1"
     inkscape:document-units="mm"
     showgrid="false"
     inkscape:zoom="0.84096521"
     inkscape:cx="334.73442"
     inkscape:cy="218.20165"
     inkscape:window-width="1920"
     inkscape:window-height="1016"
     inkscape:window-x="0"
     inkscape:window-y="27"
     inkscape:window-maximized="1"
     inkscape:current-layer="layer2" />
  <defs
     id="defs2" />
  <g
     inkscape:groupmode="layer"
     id="layer2"
     inkscape:label="Layer 2"
     transform="translate(-29.400633,-28.461235)"
     sodipodi:insensitive="true">
    <g
       id="g1721"
       transform="matrix(0.49998494,0,0,0.49998494,31.057268,7.466815)"
       inkscape:export-filename="./architectures-deps.svg"
       inkscape:export-xdpi="96"
       inkscape:export-ydpi="96"
       style="display:inline"
       sodipodi:insensitive="true">
      <g
         aria-label="Knowledge Architecture"
         id="text332-7"
         style="font-size:9.09243px;font-family:'Roboto Condensed';-inkscape-font-specification:'Roboto Condensed, Normal';stroke-width:0.104912">
        <path
           d="M 5.681315,138.92218 3.8788118,135.94317 3.24394,136.70679 v 2.21539 H 2.427042 v -6.46415 H 3.24394 v 3.1122 l 0.5327596,-0.69702 1.7403479,-2.41518 h 0.9767259 l -2.0999607,2.84582 2.2597886,3.61833 z"
           style="text-align:center;text-anchor:middle"
           id="path304" />
        <path
           d="m 8.8645533,134.72226 q -0.2885781,0 -0.5238802,0.19534 -0.2308625,0.19535 -0.3773714,0.51057 v 3.49401 H 7.1774813 v -4.80372 h 0.7414238 l 0.022198,0.51057 q 0.4572853,-0.59936 1.1676314,-0.59936 0.5904752,0 0.9412085,0.39957 0.350734,0.39957 0.350734,1.34522 v 3.14772 H 9.6148564 v -3.1566 q 0,-0.56384 -0.1864659,-0.80358 -0.1864658,-0.23974 -0.5638372,-0.23974 z"
           style="text-align:center;text-anchor:middle"
           id="path306" />
        <path
           d="m 11.41736,136.2939 q 0,-1.12324 0.537199,-1.69151 0.537199,-0.57272 1.31414,-0.57272 0.78582,0 1.32302,0.57272 0.541639,0.56827 0.541639,1.69151 v 0.45728 q 0,1.12324 -0.541639,1.69152 -0.5372,0.56827 -1.314141,0.56827 -0.78138,0 -1.323019,-0.56827 -0.537199,-0.56828 -0.537199,-1.69152 z m 0.78582,0.45728 q 0,0.7947 0.306337,1.19427 0.306336,0.39513 0.768061,0.39513 1.038882,0 1.069959,-1.5006 v -0.54608 q 0,-0.78582 -0.310776,-1.18539 -0.306337,-0.40401 -0.768062,-0.40401 -0.457285,0 -0.763622,0.40401 -0.301897,0.39957 -0.301897,1.18539 z"
           style="text-align:center;text-anchor:middle"
           id="path308" />
        <path
           d="m 21.229016,134.11846 -1.172071,4.80372 h -0.625993 l -0.941208,-3.4363 -0.910131,3.4363 H 16.94918 l -1.172071,-4.80372 h 0.776941 l 0.745864,3.32975 0.892372,-3.32975 h 0.621553 l 0.914571,3.42742 0.728104,-3.42742 z"
           style="text-align:center;text-anchor:middle"
           id="path310" />
        <path
           d="m 22.898329,132.10286 v 6.81932 h -0.781381 v -6.81932 z"
           style="text-align:center;text-anchor:middle"
           id="path312" />
        <path
           d="m 27.417905,138.28731 q -0.195345,0.27526 -0.568277,0.50168 -0.368492,0.22198 -0.990044,0.22198 -0.861295,0 -1.362977,-0.515 -0.501682,-0.51944 -0.506122,-1.60716 v -0.56383 q 0,-1.26975 0.550519,-1.78031 0.550518,-0.515 1.229786,-0.515 0.901252,0 1.291942,0.5816 0.390691,0.58159 0.390691,1.68263 v 0.45728 h -2.677117 v 0.11544 q 0,0.76806 0.288578,1.12323 0.293018,0.35073 0.839096,0.35073 0.39513,0 0.648191,-0.15094 0.2575,-0.15539 0.452846,-0.39513 z M 25.77079,134.7045 q -0.408449,0 -0.679268,0.28414 -0.27082,0.2797 -0.310777,1.09216 h 1.886857 v -0.111 q -0.03108,-0.55495 -0.208664,-0.91013 -0.173147,-0.35517 -0.688148,-0.35517 z"
           style="text-align:center;text-anchor:middle"
           id="path314" />
        <path
           d="m 30.987395,138.92218 -0.03552,-0.51944 q -0.381811,0.60823 -1.114356,0.60823 -0.710346,0 -1.158752,-0.55939 -0.443966,-0.5594 -0.443966,-1.7004 v -0.4484 q 0,-1.18539 0.443966,-1.72703 0.443967,-0.54608 1.167632,-0.54608 0.697027,0 1.074398,0.5594 v -2.48621 h 0.781381 v 6.81932 z m -1.966771,-2.171 q 0,0.80358 0.239742,1.18539 0.239742,0.37738 0.781381,0.37738 0.586035,0 0.879053,-0.59492 v -2.41074 q -0.306337,-0.58603 -0.870174,-0.58603 -0.541639,0 -0.78582,0.38181 -0.239742,0.38181 -0.244182,1.16763 z"
           style="text-align:center;text-anchor:middle"
           id="path316" />
        <path
           d="m 34.49029,140.81792 q -0.275259,0 -0.736984,-0.15095 -0.457285,-0.14651 -0.723665,-0.45729 l 0.324095,-0.54608 q 0.470604,0.47949 1.078838,0.47949 0.457286,0 0.732545,-0.2575 0.275259,-0.25306 0.275259,-0.8835 v -0.55939 q -0.381811,0.56827 -1.087718,0.56827 -0.723665,0 -1.163191,-0.55939 -0.435087,-0.5594 -0.435087,-1.7004 v -0.4484 q 0,-1.18539 0.430647,-1.72703 0.435087,-0.54608 1.176511,-0.54608 0.736984,0 1.114355,0.62155 l 0.03996,-0.53276 h 0.705907 v 4.86144 q -0.0044,0.9412 -0.488363,1.38961 -0.479484,0.44841 -1.243106,0.44841 z m -0.950088,-4.06674 q 0,0.80358 0.239742,1.18539 0.239742,0.37738 0.776941,0.37738 0.590475,0 0.883493,-0.6038 v -2.39742 q -0.306337,-0.59047 -0.874614,-0.59047 -0.541639,0 -0.78138,0.38181 -0.239742,0.38181 -0.244182,1.16763 z"
           style="text-align:center;text-anchor:middle"
           id="path318" />
        <path
           d="m 40.674739,138.28731 q -0.195345,0.27526 -0.568277,0.50168 -0.368492,0.22198 -0.990044,0.22198 -0.861295,0 -1.362977,-0.515 -0.501682,-0.51944 -0.506122,-1.60716 v -0.56383 q 0,-1.26975 0.550519,-1.78031 0.550518,-0.515 1.229786,-0.515 0.901252,0 1.291942,0.5816 0.390691,0.58159 0.390691,1.68263 v 0.45728 H 38.03314 v 0.11544 q 0,0.76806 0.288578,1.12323 0.293018,0.35073 0.839096,0.35073 0.39513,0 0.648191,-0.15094 0.2575,-0.15539 0.452846,-0.39513 z m -1.647115,-3.58281 q -0.408449,0 -0.679268,0.28414 -0.27082,0.2797 -0.310777,1.09216 h 1.886857 v -0.111 q -0.03108,-0.55495 -0.208664,-0.91013 -0.173147,-0.35517 -0.688148,-0.35517 z"
           style="text-align:center;text-anchor:middle"
           id="path320" />
        <path
           d="m -0.3055707,150.28772 2.082202,-6.46415 h 0.7014668 l 2.082202,6.46415 H 3.7256434 L 3.2195218,148.59621 H 1.0352076 l -0.50612163,1.69151 z m 1.5538821,-2.39298 H 3.006418 l -0.8790533,-2.93462 z"
           style="text-align:center;text-anchor:middle"
           id="path322" />
        <path
           d="m 6.9665976,146.18547 q -0.6037942,0 -0.843536,0.65707 v 3.44518 H 5.3372412 V 145.484 h 0.7591824 l 0.017759,0.48393 q 0.3152161,-0.57272 0.8923723,-0.57272 0.2086642,0 0.3107764,0.0622 l 0.00444,0.76363 q -0.1731469,-0.0355 -0.3551731,-0.0355 z"
           style="text-align:center;text-anchor:middle"
           id="path324" />
        <path
           d="m 9.688111,149.70612 q 0.350733,0 0.603794,-0.21754 0.253061,-0.22198 0.284139,-0.71923 h 0.736984 q -0.02664,0.72367 -0.501682,1.16763 -0.475044,0.43953 -1.123235,0.43953 -0.9278896,0 -1.3718559,-0.57272 -0.4439663,-0.57715 -0.4528457,-1.60715 v -0.5816 q 0,-1.04776 0.4439663,-1.6338 0.448406,-0.58603 1.3807353,-0.58603 0.732544,0 1.163192,0.46172 0.435087,0.45729 0.461725,1.27863 h -0.736984 q -0.06216,-1.06552 -0.887933,-1.06552 -0.6215529,0 -0.830217,0.42177 -0.2086642,0.42176 -0.2086642,1.12323 v 0.54164 q 0,0.70591 0.2042245,1.12767 0.2086642,0.42177 0.8346567,0.42177 z"
           style="text-align:center;text-anchor:middle"
           id="path326" />
        <path
           d="m 13.910231,146.0878 q -0.288578,0 -0.52388,0.19534 -0.230863,0.19535 -0.377372,0.51056 v 3.49402 h -0.78582 v -6.81932 h 0.78582 v 2.49953 q 0.452846,-0.57272 1.145433,-0.57272 0.590476,0 0.941209,0.39957 0.350733,0.39957 0.350733,1.34522 v 3.14772 h -0.78582 v -3.1566 q 0,-0.56384 -0.186466,-0.80358 -0.186466,-0.23974 -0.563837,-0.23974 z"
           style="text-align:center;text-anchor:middle"
           id="path328" />
        <path
           d="m 16.631745,144.20982 q 0,-0.19979 0.110991,-0.33742 0.110992,-0.13762 0.332975,-0.13762 0.217544,0 0.332975,0.13762 0.115431,0.13763 0.115431,0.33742 0,0.1909 -0.115431,0.32853 -0.115431,0.13319 -0.332975,0.13319 -0.221983,0 -0.332975,-0.13319 -0.110991,-0.13763 -0.110991,-0.32853 z m 0.825777,1.27418 v 4.80372 H 16.676141 V 145.484 Z"
           style="text-align:center;text-anchor:middle"
           id="path330" />
        <path
           d="m 20.449855,150.28772 q -0.226423,0.0888 -0.550519,0.0888 -0.381811,0 -0.670389,-0.2797 -0.284138,-0.2797 -0.284138,-1.00336 v -2.97902 H 18.212264 V 145.484 h 0.732545 v -1.16763 h 0.78582 v 1.16763 h 0.723665 v 0.63043 h -0.723665 v 2.98346 q 0,0.36849 0.124311,0.4706 0.12875,0.10211 0.288578,0.10211 0.168707,0 0.310776,-0.0533 z"
           style="text-align:center;text-anchor:middle"
           id="path332" />
        <path
           d="m 24.667534,149.65285 q -0.195345,0.27526 -0.568277,0.50168 -0.368492,0.22198 -0.990045,0.22198 -0.861294,0 -1.362976,-0.515 -0.501682,-0.51944 -0.506122,-1.60716 v -0.56384 q 0,-1.26974 0.550518,-1.7803 0.550519,-0.515 1.229787,-0.515 0.901252,0 1.291942,0.58159 0.390691,0.5816 0.390691,1.68264 v 0.45728 h -2.677117 v 0.11543 q 0,0.76807 0.288578,1.12324 0.293018,0.35073 0.839096,0.35073 0.39513,0 0.648191,-0.15095 0.2575,-0.15538 0.452846,-0.39513 z m -1.647115,-3.58281 q -0.408449,0 -0.679268,0.28414 -0.27082,0.2797 -0.310777,1.09215 h 1.886857 v -0.11099 q -0.03108,-0.55496 -0.208664,-0.91013 -0.173147,-0.35517 -0.688148,-0.35517 z"
           style="text-align:center;text-anchor:middle"
           id="path334" />
        <path
           d="m 27.318014,149.70612 q 0.350733,0 0.603794,-0.21754 0.253061,-0.22198 0.284138,-0.71923 h 0.736985 q -0.02664,0.72367 -0.501682,1.16763 -0.475044,0.43953 -1.123235,0.43953 -0.92789,0 -1.371856,-0.57272 -0.443966,-0.57715 -0.452846,-1.60715 v -0.5816 q 0,-1.04776 0.443967,-1.6338 0.448406,-0.58603 1.380735,-0.58603 0.732544,0 1.163192,0.46172 0.435087,0.45729 0.461725,1.27863 h -0.736985 q -0.06216,-1.06552 -0.887932,-1.06552 -0.621553,0 -0.830217,0.42177 -0.208664,0.42176 -0.208664,1.12323 v 0.54164 q 0,0.70591 0.204224,1.12767 0.208664,0.42177 0.834657,0.42177 z"
           style="text-align:center;text-anchor:middle"
           id="path336" />
        <path
           d="m 31.602288,150.28772 q -0.226423,0.0888 -0.550518,0.0888 -0.381811,0 -0.670389,-0.2797 -0.284139,-0.2797 -0.284139,-1.00336 v -2.97902 H 29.364698 V 145.484 h 0.732544 v -1.16763 h 0.785821 v 1.16763 h 0.723665 v 0.63043 h -0.723665 v 2.98346 q 0,0.36849 0.12431,0.4706 0.12875,0.10211 0.288578,0.10211 0.168708,0 0.310777,-0.0533 z"
           style="text-align:center;text-anchor:middle"
           id="path338" />
        <path
           d="m 35.011949,150.28772 -0.01332,-0.42177 q -0.39957,0.51056 -1.145433,0.51056 -0.594915,0 -0.958967,-0.41733 -0.364053,-0.41733 -0.364053,-1.37629 V 145.484 h 0.781381 v 3.12996 q 0.0044,0.63488 0.213104,0.85242 0.213104,0.2131 0.461725,0.2131 0.710346,0 0.985605,-0.64375 V 145.484 h 0.78582 v 4.80372 z"
           style="text-align:center;text-anchor:middle"
           id="path340" />
        <path
           d="m 38.56812,146.18547 q -0.603794,0 -0.843536,0.65707 v 3.44518 h -0.78582 V 145.484 h 0.759182 l 0.01776,0.48393 q 0.315216,-0.57272 0.892372,-0.57272 0.208664,0 0.310776,0.0622 l 0.0044,0.76363 q -0.173147,-0.0355 -0.355173,-0.0355 z"
           id="path342" />
        <path
           d="m 42.901232,149.65285 q -0.195345,0.27526 -0.568277,0.50168 -0.368492,0.22198 -0.990045,0.22198 -0.861294,0 -1.362976,-0.515 -0.501682,-0.51944 -0.506122,-1.60716 v -0.56384 q 0,-1.26974 0.550518,-1.7803 0.550519,-0.515 1.229787,-0.515 0.901252,0 1.291942,0.58159 0.39069,0.5816 0.39069,1.68264 v 0.45728 h -2.677116 v 0.11543 q 0,0.76807 0.288578,1.12324 0.293017,0.35073 0.839096,0.35073 0.39513,0 0.648191,-0.15095 0.2575,-0.15538 0.452845,-0.39513 z m -1.647115,-3.58281 q -0.408449,0 -0.679268,0.28414 -0.27082,0.2797 -0.310777,1.09215 h 1.886857 v -0.11099 q -0.03108,-0.55496 -0.208664,-0.91013 -0.173147,-0.35517 -0.688148,-0.35517 z"
           id="path344" />
      </g>
      <g
         aria-label="Collaboration Architecture"
         id="text332-7-3"
         style="font-size:9.09243px;font-family:'Roboto Condensed';-inkscape-font-specification:'Roboto Condensed, Normal';stroke-width:0.104912">
        <path
           d="m 110.3257,111.72885 h 0.8169 q -0.0444,0.99893 -0.5594,1.57164 -0.515,0.57272 -1.5228,0.57272 -0.97229,0 -1.545,-0.73698 -0.56828,-0.74143 -0.56828,-1.98897 v -1.19427 q 0,-1.24311 0.57716,-1.98009 0.58159,-0.74143 1.61159,-0.74143 0.94121,0 1.45177,0.5594 0.51057,0.5594 0.55496,1.60272 h -0.8169 q -0.0488,-0.76362 -0.31965,-1.10992 -0.27082,-0.35073 -0.87018,-0.35073 -0.71034,0 -1.04332,0.55052 -0.32853,0.55052 -0.32853,1.46065 v 1.20315 q 0,0.84797 0.28858,1.43845 0.29301,0.59047 1.0078,0.59047 0.67039,0 0.93677,-0.33741 0.26638,-0.33742 0.32853,-1.10992 z"
           style="text-align:center;text-anchor:middle"
           id="path347" />
        <path
           d="m 111.97282,111.15614 q 0,-1.12324 0.5372,-1.69152 0.5372,-0.57271 1.31414,-0.57271 0.78582,0 1.32302,0.57271 0.54164,0.56828 0.54164,1.69152 v 0.45728 q 0,1.12324 -0.54164,1.69151 -0.5372,0.56828 -1.31414,0.56828 -0.78138,0 -1.32302,-0.56828 -0.5372,-0.56827 -0.5372,-1.69151 z m 0.78582,0.45728 q 0,0.7947 0.30634,1.19427 0.30633,0.39513 0.76806,0.39513 1.03888,0 1.06996,-1.50061 v -0.54607 q 0,-0.78582 -0.31078,-1.18539 -0.30634,-0.40401 -0.76806,-0.40401 -0.45729,0 -0.76362,0.40401 -0.3019,0.39957 -0.3019,1.18539 z"
           style="text-align:center;text-anchor:middle"
           id="path349" />
        <path
           d="m 117.5446,106.96509 v 6.81933 h -0.78138 v -6.81933 z"
           style="text-align:center;text-anchor:middle"
           id="path351" />
        <path
           d="m 119.63124,106.96509 v 6.81933 h -0.78138 v -6.81933 z"
           style="text-align:center;text-anchor:middle"
           id="path353" />
        <path
           d="m 123.34724,113.78442 q -0.0755,-0.17315 -0.10656,-0.51944 -0.16426,0.24418 -0.43508,0.4262 -0.27082,0.18203 -0.62599,0.18203 -0.63044,0 -1.01225,-0.35517 -0.37737,-0.35518 -0.37737,-1.04332 0,-0.69259 0.47504,-1.14544 0.47505,-0.45728 1.4207,-0.45728 h 0.54164 v -0.515 q 0,-0.42621 -0.19535,-0.60824 -0.1909,-0.18202 -0.57716,-0.18202 -0.37737,0 -0.59047,0.22198 -0.20867,0.22198 -0.20867,0.52388 h -0.78582 q 0,-0.515 0.43953,-0.96785 0.43953,-0.45284 1.18539,-0.45284 0.66595,0 1.09216,0.33297 0.42621,0.33298 0.42621,1.141 v 2.29086 q 0,0.67927 0.1465,1.05664 v 0.071 z m -1.04776,-0.626 q 0.33297,0 0.57715,-0.17314 0.24418,-0.17315 0.35074,-0.38625 v -1.14988 h -0.41289 q -0.56384,0 -0.90125,0.23975 -0.33742,0.23974 -0.33742,0.68814 0,0.43065 0.17759,0.60824 0.18202,0.17314 0.54608,0.17314 z"
           style="text-align:center;text-anchor:middle"
           id="path355" />
        <path
           d="m 128.71035,111.61342 q 0,1.14099 -0.41289,1.70039 -0.41289,0.5594 -1.16763,0.5594 -0.75918,0 -1.14099,-0.65707 l -0.04,0.56828 h -0.71923 v -6.81933 h 0.78583 v 2.53505 q 0.37737,-0.60823 1.10991,-0.60823 0.7503,0 1.15875,0.52832 0.41289,0.52388 0.42621,1.66931 z m -1.78918,-2.02893 q -0.6038,0 -0.90569,0.65264 v 2.29086 q 0.30189,0.64819 0.91013,0.64819 0.53276,0 0.76362,-0.37293 0.23086,-0.37293 0.2353,-1.15875 v -0.47949 q 0,-0.79913 -0.21754,-1.18982 -0.21755,-0.3907 -0.78582,-0.3907 z"
           style="text-align:center;text-anchor:middle"
           id="path357" />
        <path
           d="m 129.54945,111.15614 q 0,-1.12324 0.53719,-1.69152 0.5372,-0.57271 1.31415,-0.57271 0.78582,0 1.32301,0.57271 0.54164,0.56828 0.54164,1.69152 v 0.45728 q 0,1.12324 -0.54164,1.69151 -0.53719,0.56828 -1.31414,0.56828 -0.78138,0 -1.32302,-0.56828 -0.53719,-0.56827 -0.53719,-1.69151 z m 0.78582,0.45728 q 0,0.7947 0.30633,1.19427 0.30634,0.39513 0.76806,0.39513 1.03889,0 1.06996,-1.50061 v -0.54607 q 0,-0.78582 -0.31077,-1.18539 -0.30634,-0.40401 -0.76806,-0.40401 -0.45729,0 -0.76363,0.40401 -0.30189,0.39957 -0.30189,1.18539 z"
           style="text-align:center;text-anchor:middle"
           id="path359" />
        <path
           d="m 135.90704,109.68217 q -0.60379,0 -0.84353,0.65707 v 3.44518 h -0.78582 v -4.80372 h 0.75918 l 0.0178,0.48392 q 0.31521,-0.57271 0.89237,-0.57271 0.20866,0 0.31078,0.0622 l 0.004,0.76362 q -0.17315,-0.0355 -0.35518,-0.0355 z"
           style="text-align:center;text-anchor:middle"
           id="path361" />
        <path
           d="m 139.34334,113.78442 q -0.0755,-0.17315 -0.10655,-0.51944 -0.16427,0.24418 -0.43509,0.4262 -0.27081,0.18203 -0.62599,0.18203 -0.63043,0 -1.01224,-0.35517 -0.37737,-0.35518 -0.37737,-1.04332 0,-0.69259 0.47504,-1.14544 0.47505,-0.45728 1.42069,-0.45728 h 0.54164 v -0.515 q 0,-0.42621 -0.19534,-0.60824 -0.19091,-0.18202 -0.57716,-0.18202 -0.37737,0 -0.59047,0.22198 -0.20867,0.22198 -0.20867,0.52388 h -0.78582 q 0,-0.515 0.43953,-0.96785 0.43952,-0.45284 1.18539,-0.45284 0.66595,0 1.09216,0.33297 0.4262,0.33298 0.4262,1.141 v 2.29086 q 0,0.67927 0.14651,1.05664 v 0.071 z m -1.04776,-0.626 q 0.33298,0 0.57716,-0.17314 0.24418,-0.17315 0.35073,-0.38625 v -1.14988 h -0.41289 q -0.56383,0 -0.90125,0.23975 -0.33741,0.23974 -0.33741,0.68814 0,0.43065 0.17758,0.60824 0.18203,0.17314 0.54608,0.17314 z"
           style="text-align:center;text-anchor:middle"
           id="path363" />
        <path
           d="m 142.97499,113.78442 q -0.22643,0.0888 -0.55052,0.0888 -0.38181,0 -0.67039,-0.2797 -0.28414,-0.2797 -0.28414,-1.00336 v -2.97902 h -0.73254 v -0.63043 h 0.73254 v -1.16763 h 0.78582 v 1.16763 h 0.72367 v 0.63043 h -0.72367 v 2.98346 q 0,0.36849 0.12431,0.4706 0.12875,0.10211 0.28858,0.10211 0.16871,0 0.31078,-0.0533 z"
           style="text-align:center;text-anchor:middle"
           id="path365" />
        <path
           d="m 143.93396,107.70652 q 0,-0.19979 0.11099,-0.33742 0.11099,-0.13763 0.33297,-0.13763 0.21755,0 0.33298,0.13763 0.11543,0.13763 0.11543,0.33742 0,0.1909 -0.11543,0.32853 -0.11543,0.13319 -0.33298,0.13319 -0.22198,0 -0.33297,-0.13319 -0.11099,-0.13763 -0.11099,-0.32853 z m 0.82577,1.27418 v 4.80372 h -0.78138 v -4.80372 z"
           style="text-align:center;text-anchor:middle"
           id="path367" />
        <path
           d="m 145.83857,111.15614 q 0,-1.12324 0.5372,-1.69152 0.5372,-0.57271 1.31414,-0.57271 0.78582,0 1.32302,0.57271 0.54164,0.56828 0.54164,1.69152 v 0.45728 q 0,1.12324 -0.54164,1.69151 -0.5372,0.56828 -1.31414,0.56828 -0.78138,0 -1.32302,-0.56828 -0.5372,-0.56827 -0.5372,-1.69151 z m 0.78582,0.45728 q 0,0.7947 0.30634,1.19427 0.30633,0.39513 0.76806,0.39513 1.03888,0 1.06996,-1.50061 v -0.54607 q 0,-0.78582 -0.31078,-1.18539 -0.30634,-0.40401 -0.76806,-0.40401 -0.45729,0 -0.76362,0.40401 -0.3019,0.39957 -0.3019,1.18539 z"
           style="text-align:center;text-anchor:middle"
           id="path369" />
        <path
           d="m 152.25388,109.58449 q -0.28857,0 -0.52388,0.19535 -0.23086,0.19535 -0.37737,0.51056 v 3.49402 h -0.78582 v -4.80372 h 0.74143 l 0.0222,0.51056 q 0.45729,-0.59935 1.16764,-0.59935 0.59047,0 0.9412,0.39957 0.35074,0.39957 0.35074,1.34522 v 3.14772 h -0.78582 v -3.1566 q 0,-0.56384 -0.18647,-0.80358 -0.18646,-0.23975 -0.56384,-0.23975 z"
           style="text-align:center;text-anchor:middle"
           id="path371" />
        <path
           d="m 108.68081,125.14995 2.0822,-6.46415 h 0.70147 l 2.0822,6.46415 h -0.83466 l -0.50612,-1.69151 h -2.18431 l -0.50612,1.69151 z m 1.55388,-2.39297 h 1.75811 l -0.87906,-2.93462 z"
           style="text-align:center;text-anchor:middle"
           id="path373" />
        <path
           d="m 115.95298,121.04771 q -0.6038,0 -0.84354,0.65707 v 3.44517 h -0.78582 v -4.80371 h 0.75918 l 0.0178,0.48392 q 0.31522,-0.57271 0.89237,-0.57271 0.20867,0 0.31078,0.0621 l 0.004,0.76362 q -0.17315,-0.0355 -0.35517,-0.0355 z"
           style="text-align:center;text-anchor:middle"
           id="path375" />
        <path
           d="m 118.67449,124.56836 q 0.35073,0 0.60379,-0.21755 0.25307,-0.22198 0.28414,-0.71922 h 0.73699 q -0.0266,0.72366 -0.50168,1.16763 -0.47505,0.43953 -1.12324,0.43953 -0.92789,0 -1.37186,-0.57272 -0.44396,-0.57716 -0.45284,-1.60716 v -0.58159 q 0,-1.04776 0.44397,-1.6338 0.4484,-0.58603 1.38073,-0.58603 0.73255,0 1.16319,0.46172 0.43509,0.45729 0.46173,1.27862 h -0.73699 q -0.0622,-1.06552 -0.88793,-1.06552 -0.62155,0 -0.83022,0.42177 -0.20866,0.42177 -0.20866,1.12324 v 0.54164 q 0,0.7059 0.20422,1.12767 0.20867,0.42177 0.83466,0.42177 z"
           style="text-align:center;text-anchor:middle"
           id="path377" />
        <path
           d="m 122.89661,120.95003 q -0.28858,0 -0.52388,0.19535 -0.23086,0.19534 -0.37737,0.51056 v 3.49401 h -0.78582 v -6.81932 h 0.78582 v 2.49953 q 0.45284,-0.57271 1.14543,-0.57271 0.59048,0 0.94121,0.39956 0.35073,0.39957 0.35073,1.34522 v 3.14772 h -0.78582 v -3.1566 q 0,-0.56383 -0.18646,-0.80358 -0.18647,-0.23974 -0.56384,-0.23974 z"
           style="text-align:center;text-anchor:middle"
           id="path379" />
        <path
           d="m 125.61812,119.07206 q 0,-0.19979 0.111,-0.33742 0.11099,-0.13763 0.33297,-0.13763 0.21754,0 0.33298,0.13763 0.11543,0.13763 0.11543,0.33742 0,0.1909 -0.11543,0.32853 -0.11544,0.13319 -0.33298,0.13319 -0.22198,0 -0.33297,-0.13319 -0.111,-0.13763 -0.111,-0.32853 z m 0.82578,1.27418 v 4.80371 h -0.78138 v -4.80371 z"
           style="text-align:center;text-anchor:middle"
           id="path381" />
        <path
           d="m 129.43623,125.14995 q -0.22642,0.0888 -0.55051,0.0888 -0.38181,0 -0.67039,-0.2797 -0.28414,-0.2797 -0.28414,-1.00337 v -2.97901 h -0.73255 v -0.63043 h 0.73255 v -1.16763 h 0.78582 v 1.16763 h 0.72366 v 0.63043 h -0.72366 v 2.98345 q 0,0.3685 0.12431,0.47061 0.12875,0.10211 0.28858,0.10211 0.1687,0 0.31077,-0.0533 z"
           style="text-align:center;text-anchor:middle"
           id="path383" />
        <path
           d="m 133.65391,124.51508 q -0.19534,0.27526 -0.56827,0.50168 -0.3685,0.22199 -0.99005,0.22199 -0.86129,0 -1.36297,-0.515 -0.50169,-0.51944 -0.50613,-1.60716 v -0.56384 q 0,-1.26974 0.55052,-1.7803 0.55052,-0.515 1.22979,-0.515 0.90125,0 1.29194,0.58159 0.39069,0.5816 0.39069,1.68263 v 0.45729 h -2.67712 v 0.11543 q 0,0.76806 0.28858,1.12323 0.29302,0.35074 0.8391,0.35074 0.39513,0 0.64819,-0.15095 0.2575,-0.15539 0.45285,-0.39513 z m -1.64711,-3.58281 q -0.40845,0 -0.67927,0.28414 -0.27082,0.2797 -0.31078,1.09216 h 1.88686 v -0.11099 q -0.0311,-0.55496 -0.20866,-0.91013 -0.17315,-0.35518 -0.68815,-0.35518 z"
           style="text-align:center;text-anchor:middle"
           id="path385" />
        <path
           d="m 136.30439,124.56836 q 0.35074,0 0.6038,-0.21755 0.25306,-0.22198 0.28414,-0.71922 h 0.73698 q -0.0266,0.72366 -0.50168,1.16763 -0.47505,0.43953 -1.12324,0.43953 -0.92789,0 -1.37185,-0.57272 -0.44397,-0.57716 -0.45285,-1.60716 v -0.58159 q 0,-1.04776 0.44397,-1.6338 0.4484,-0.58603 1.38073,-0.58603 0.73255,0 1.1632,0.46172 0.43508,0.45729 0.46172,1.27862 h -0.73698 q -0.0622,-1.06552 -0.88794,-1.06552 -0.62155,0 -0.83021,0.42177 -0.20867,0.42177 -0.20867,1.12324 v 0.54164 q 0,0.7059 0.20423,1.12767 0.20866,0.42177 0.83465,0.42177 z"
           style="text-align:center;text-anchor:middle"
           id="path387" />
        <path
           d="m 140.58867,125.14995 q -0.22643,0.0888 -0.55052,0.0888 -0.38181,0 -0.67039,-0.2797 -0.28414,-0.2797 -0.28414,-1.00337 v -2.97901 h -0.73254 v -0.63043 h 0.73254 v -1.16763 h 0.78582 v 1.16763 h 0.72367 v 0.63043 h -0.72367 v 2.98345 q 0,0.3685 0.12431,0.47061 0.12875,0.10211 0.28858,0.10211 0.16871,0 0.31078,-0.0533 z"
           style="text-align:center;text-anchor:middle"
           id="path389" />
        <path
           d="m 143.99833,125.14995 -0.0133,-0.42176 q -0.39957,0.51056 -1.14543,0.51056 -0.59492,0 -0.95897,-0.41733 -0.36405,-0.41733 -0.36405,-1.3763 v -3.09888 h 0.78138 v 3.12996 q 0.004,0.63487 0.2131,0.85242 0.21311,0.2131 0.46173,0.2131 0.71034,0 0.9856,-0.64375 v -3.55173 h 0.78582 v 4.80371 z"
           style="text-align:center;text-anchor:middle"
           id="path391" />
        <path
           d="m 147.5545,121.04771 q -0.60379,0 -0.84354,0.65707 v 3.44517 h -0.78582 v -4.80371 h 0.75919 l 0.0178,0.48392 q 0.31522,-0.57271 0.89238,-0.57271 0.20866,0 0.31077,0.0621 l 0.004,0.76362 q -0.17314,-0.0355 -0.35517,-0.0355 z"
           id="path393" />
        <path
           d="m 151.88761,124.51508 q -0.19534,0.27526 -0.56828,0.50168 -0.36849,0.22199 -0.99004,0.22199 -0.86129,0 -1.36298,-0.515 -0.50168,-0.51944 -0.50612,-1.60716 v -0.56384 q 0,-1.26974 0.55052,-1.7803 0.55052,-0.515 1.22979,-0.515 0.90125,0 1.29194,0.58159 0.39069,0.5816 0.39069,1.68263 v 0.45729 h -2.67712 v 0.11543 q 0,0.76806 0.28858,1.12323 0.29302,0.35074 0.8391,0.35074 0.39513,0 0.64819,-0.15095 0.2575,-0.15539 0.45284,-0.39513 z m -1.64711,-3.58281 q -0.40845,0 -0.67927,0.28414 -0.27082,0.2797 -0.31078,1.09216 h 1.88686 v -0.11099 q -0.0311,-0.55496 -0.20867,-0.91013 -0.17314,-0.35518 -0.68814,-0.35518 z"
           id="path395" />
      </g>
      <g
         aria-label="System Architecture"
         id="text332"
         style="font-size:9.09243px;font-family:'Roboto Condensed';-inkscape-font-specification:'Roboto Condensed, Normal';stroke-width:0.104912">
        <path
           d="m 35.54369,49.265767 q 0,-0.452846 -0.239742,-0.719226 -0.239742,-0.266379 -1.025562,-0.546078 -0.78582,-0.284139 -1.247545,-0.719226 -0.461725,-0.435087 -0.461725,-1.17651 0,-0.754743 0.501682,-1.256425 0.501682,-0.501682 1.349657,-0.501682 0.945648,0 1.442891,0.599355 0.497242,0.599354 0.497242,1.354097 H 35.54369 q 0,-0.541639 -0.26638,-0.896812 -0.26638,-0.355173 -0.856855,-0.355173 -0.537199,0 -0.78582,0.301897 -0.244182,0.297457 -0.244182,0.745863 0,0.408449 0.288578,0.679269 0.293018,0.270819 0.905692,0.492802 0.950088,0.310777 1.362976,0.772502 0.412889,0.461725 0.412889,1.216467 0,0.790261 -0.515001,1.260865 -0.510561,0.470604 -1.385175,0.470604 -0.506121,0 -0.981165,-0.221983 -0.475044,-0.221983 -0.781381,-0.65707 -0.301897,-0.439527 -0.301897,-1.083278 h 0.816898 q 0,0.66151 0.364052,0.963407 0.368492,0.301897 0.883493,0.301897 0.53276,0 0.808019,-0.275259 0.275259,-0.279699 0.275259,-0.750303 z"
           style="text-align:center;text-anchor:middle"
           id="path398" />
        <path
           d="m 38.758006,51.640987 q -0.38625,1.198709 -1.225347,1.198709 -0.217543,0 -0.404009,-0.07104 v -0.665949 q 0.07103,0.01776 0.168707,0.01776 0.332975,0 0.52832,-0.159828 0.199785,-0.159828 0.324095,-0.581596 l 0.155389,-0.52388 -1.416253,-4.759319 h 0.856855 l 0.892372,3.494015 0.870174,-3.494015 h 0.834657 z"
           style="text-align:center;text-anchor:middle"
           id="path400" />
        <path
           d="m 43.441851,49.669776 q 0,-0.275259 -0.213104,-0.461725 -0.208664,-0.186466 -0.803579,-0.439526 -0.594915,-0.253061 -0.936769,-0.515001 -0.386251,-0.297458 -0.386251,-0.883493 0,-0.572717 0.417329,-0.967847 0.417328,-0.39513 1.105476,-0.39513 0.736984,0 1.145433,0.417328 0.408449,0.417329 0.408449,1.038882 h -0.781381 q 0,-0.297458 -0.199785,-0.5372 -0.199785,-0.244181 -0.572716,-0.244181 -0.39513,0 -0.568277,0.199785 -0.168707,0.199785 -0.168707,0.461725 0,0.26194 0.168707,0.408449 0.168707,0.142069 0.670389,0.364052 0.728105,0.288578 1.114355,0.599355 0.386251,0.310776 0.386251,0.892372 0,0.634872 -0.435087,1.007803 -0.435087,0.372932 -1.149873,0.372932 -0.816898,0 -1.247545,-0.466165 -0.430647,-0.466164 -0.430647,-1.061079 h 0.78582 q 0.0222,0.510561 0.306337,0.683708 0.284138,0.168707 0.586035,0.168707 0.79914,0 0.79914,-0.643751 z"
           style="text-align:center;text-anchor:middle"
           id="path402" />
        <path
           d="m 47.0069,50.899563 q -0.226422,0.08879 -0.550518,0.08879 -0.381811,0 -0.670389,-0.279699 -0.284138,-0.279698 -0.284138,-1.003364 V 46.726279 H 44.76931 v -0.630432 h 0.732545 v -1.167631 h 0.78582 v 1.167631 h 0.723665 v 0.630432 h -0.723665 v 2.983454 q 0,0.368492 0.124311,0.470604 0.12875,0.102113 0.288578,0.102113 0.168707,0 0.310776,-0.05328 z"
           style="text-align:center;text-anchor:middle"
           id="path404" />
        <path
           d="m 51.224581,50.264691 q -0.195345,0.275259 -0.568277,0.501682 -0.368492,0.221983 -0.990045,0.221983 -0.861294,0 -1.362976,-0.515001 -0.501682,-0.51944 -0.506122,-1.607158 V 48.30236 q 0,-1.269744 0.550518,-1.780305 0.550518,-0.515001 1.229787,-0.515001 0.901252,0 1.291942,0.581596 0.39069,0.581596 0.39069,1.682632 v 0.457286 h -2.677117 v 0.115431 q 0,0.768062 0.288578,1.123235 0.293018,0.350733 0.839097,0.350733 0.39513,0 0.648191,-0.150949 0.2575,-0.155388 0.452845,-0.39513 z m -1.647115,-3.582808 q -0.408449,0 -0.679269,0.284138 -0.270819,0.279699 -0.310776,1.092157 h 1.886857 V 47.947187 Q 50.4432,47.392229 50.265614,47.037056 50.092467,46.681883 49.577466,46.681883 Z"
           style="text-align:center;text-anchor:middle"
           id="path406" />
        <path
           d="m 53.830662,46.699642 q -0.590475,0 -0.834657,0.586035 v 3.613886 h -0.78138 v -4.803716 h 0.736984 l 0.0222,0.435087 q 0.430647,-0.52388 1.154312,-0.52388 0.7947,0 1.118796,0.697027 0.452845,-0.697027 1.260864,-0.697027 0.65707,0 1.007803,0.412889 0.355173,0.412888 0.355173,1.323019 v 3.156601 h -0.78582 v -3.16548 q 0,-0.603794 -0.221983,-0.816898 -0.217544,-0.217543 -0.594915,-0.217543 -0.364052,0 -0.581596,0.284138 -0.213104,0.279699 -0.253061,0.688148 v 3.227635 h -0.78582 v -3.227635 q -0.0222,-0.972286 -0.816898,-0.972286 z"
           style="text-align:center;text-anchor:middle"
           id="path408" />
        <path
           d="m 23.536621,62.2651 2.082202,-6.464149 H 26.32029 L 28.402492,62.2651 H 27.567835 L 27.061714,60.573589 H 24.877399 L 24.371278,62.2651 Z m 1.553882,-2.392978 h 1.758107 l -0.879054,-2.934617 z"
           style="text-align:center;text-anchor:middle"
           id="path410" />
        <path
           d="m 30.808789,58.162852 q -0.603794,0 -0.843536,0.65707 V 62.2651 h -0.78582 v -4.803715 h 0.759182 l 0.01776,0.483923 q 0.315216,-0.572716 0.892372,-0.572716 0.208664,0 0.310777,0.06216 l 0.0044,0.763622 q -0.173146,-0.03552 -0.355173,-0.03552 z"
           style="text-align:center;text-anchor:middle"
           id="path412" />
        <path
           d="m 33.530303,61.683505 q 0.350733,0 0.603794,-0.217544 0.253061,-0.221983 0.284138,-0.719225 h 0.736984 q -0.02664,0.723665 -0.501682,1.167631 -0.475044,0.439527 -1.123234,0.439527 -0.92789,0 -1.371856,-0.572717 -0.443967,-0.577156 -0.452846,-1.607158 v -0.581596 q 0,-1.04776 0.443966,-1.633796 0.448406,-0.586035 1.380736,-0.586035 0.732544,0 1.163191,0.461725 0.435087,0.457285 0.461725,1.278623 h -0.736984 q -0.06216,-1.06552 -0.887932,-1.06552 -0.621553,0 -0.830217,0.421768 -0.208665,0.421768 -0.208665,1.123235 v 0.541639 q 0,0.705907 0.204225,1.127675 0.208664,0.421768 0.834657,0.421768 z"
           style="text-align:center;text-anchor:middle"
           id="path414" />
        <path
           d="m 37.752423,58.065179 q -0.288579,0 -0.523881,0.195345 -0.230862,0.195346 -0.377371,0.510562 V 62.2651 h -0.78582 v -6.819322 h 0.78582 v 2.49953 q 0.452846,-0.572716 1.145433,-0.572716 0.590475,0 0.941209,0.399569 0.350733,0.39957 0.350733,1.345218 V 62.2651 h -0.78582 v -3.1566 q 0,-0.563837 -0.186466,-0.803579 -0.186466,-0.239742 -0.563837,-0.239742 z"
           style="text-align:center;text-anchor:middle"
           id="path416" />
        <path
           d="m 40.473936,56.187202 q 0,-0.199785 0.110992,-0.337415 0.110992,-0.137629 0.332975,-0.137629 0.217543,0 0.332974,0.137629 0.115432,0.13763 0.115432,0.337415 0,0.190905 -0.115432,0.328535 -0.115431,0.13319 -0.332974,0.13319 -0.221983,0 -0.332975,-0.13319 -0.110992,-0.13763 -0.110992,-0.328535 z m 0.825778,1.274183 V 62.2651 h -0.781381 v -4.803715 z"
           style="text-align:center;text-anchor:middle"
           id="path418" />
        <path
           d="m 44.292046,62.2651 q -0.226422,0.08879 -0.550518,0.08879 -0.381811,0 -0.670389,-0.279699 -0.284138,-0.279699 -0.284138,-1.003364 v -2.979014 h -0.732545 v -0.630432 h 0.732545 V 56.29375 h 0.78582 v 1.167631 h 0.723665 v 0.630432 h -0.723665 v 2.983454 q 0,0.368492 0.124311,0.470604 0.12875,0.102112 0.288578,0.102112 0.168707,0 0.310776,-0.05328 z"
           style="text-align:center;text-anchor:middle"
           id="path420" />
        <path
           d="m 48.509726,61.630229 q -0.195345,0.275259 -0.568277,0.501682 -0.368492,0.221983 -0.990045,0.221983 -0.861295,0 -1.362976,-0.515001 -0.501682,-0.519441 -0.506122,-1.607158 v -0.563837 q 0,-1.269744 0.550518,-1.780305 0.550518,-0.515001 1.229787,-0.515001 0.901251,0 1.291942,0.581596 0.39069,0.581595 0.39069,1.682632 v 0.457285 h -2.677117 v 0.115431 q 0,0.768062 0.288578,1.123235 0.293018,0.350734 0.839097,0.350734 0.39513,0 0.648191,-0.150949 0.2575,-0.155388 0.452845,-0.39513 z M 46.862611,58.04742 q -0.408449,0 -0.679269,0.284139 -0.270819,0.279699 -0.310776,1.092157 h 1.886857 v -0.110992 q -0.03108,-0.554957 -0.208664,-0.91013 -0.173147,-0.355174 -0.688148,-0.355174 z"
           style="text-align:center;text-anchor:middle"
           id="path422" />
        <path
           d="m 51.160206,61.683505 q 0.350733,0 0.603794,-0.217544 0.25306,-0.221983 0.284138,-0.719225 h 0.736984 q -0.02664,0.723665 -0.501682,1.167631 -0.475044,0.439527 -1.123234,0.439527 -0.92789,0 -1.371856,-0.572717 -0.443967,-0.577156 -0.452846,-1.607158 v -0.581596 q 0,-1.04776 0.443966,-1.633796 0.448406,-0.586035 1.380736,-0.586035 0.732544,0 1.163191,0.461725 0.435087,0.457285 0.461725,1.278623 h -0.736984 q -0.06216,-1.06552 -0.887932,-1.06552 -0.621553,0 -0.830217,0.421768 -0.208665,0.421768 -0.208665,1.123235 v 0.541639 q 0,0.705907 0.204225,1.127675 0.208664,0.421768 0.834657,0.421768 z"
           style="text-align:center;text-anchor:middle"
           id="path424" />
        <path
           d="m 55.44448,62.2651 q -0.226423,0.08879 -0.550518,0.08879 -0.381811,0 -0.67039,-0.279699 -0.284138,-0.279699 -0.284138,-1.003364 v -2.97901 H 53.20689 v -0.630432 h 0.732544 v -1.167631 h 0.78582 v 1.167631 h 0.723665 v 0.630432 h -0.723665 v 2.983454 q 0,0.368492 0.124311,0.470604 0.12875,0.102112 0.288578,0.102112 0.168707,0 0.310776,-0.05328 z"
           style="text-align:center;text-anchor:middle"
           id="path426" />
        <path
           d="m 58.854141,62.2651 -0.01332,-0.421768 q -0.39957,0.510562 -1.145433,0.510562 -0.594915,0 -0.958968,-0.417329 -0.364052,-0.417328 -0.364052,-1.376295 v -3.098885 h 0.781381 v 3.129962 q 0.0044,0.634872 0.213103,0.852416 0.213104,0.213104 0.461725,0.213104 0.710347,0 0.985606,-0.643752 v -3.55173 h 0.78582 V 62.2651 Z"
           style="text-align:center;text-anchor:middle"
           id="path428" />
        <path
           d="m 62.410312,58.162852 q -0.603794,0 -0.843536,0.65707 V 62.2651 h -0.785821 v -4.803715 h 0.759183 l 0.01776,0.483923 q 0.315217,-0.572716 0.892373,-0.572716 0.208664,0 0.310776,0.06216 l 0.0044,0.763622 q -0.173147,-0.03552 -0.355173,-0.03552 z"
           id="path430" />
        <path
           d="m 66.743424,61.630229 q -0.195345,0.275259 -0.568277,0.501682 -0.368492,0.221983 -0.990045,0.221983 -0.861295,0 -1.362977,-0.515001 -0.501681,-0.519441 -0.506121,-1.607158 v -0.563837 q 0,-1.269744 0.550518,-1.780305 0.550518,-0.515001 1.229787,-0.515001 0.901251,0 1.291942,0.581596 0.39069,0.581595 0.39069,1.682632 v 0.457285 h -2.677117 v 0.115431 q 0,0.768062 0.288578,1.123235 0.293018,0.350734 0.839097,0.350734 0.39513,0 0.64819,-0.150949 0.257501,-0.155388 0.452846,-0.39513 z M 65.096309,58.04742 q -0.408449,0 -0.679269,0.284139 -0.270819,0.279699 -0.310776,1.092157 h 1.886857 V 59.312724 Q 65.962043,58.757767 65.784457,58.402594 65.61131,58.04742 65.096309,58.04742 Z"
           id="path432" />
      </g>
      <path
         id="path1424"
         style="fill:#049cff;fill-opacity:1;stroke:none;stroke-width:0.117865;stroke-dasharray:none;stroke-opacity:1"
         d="m 33.764995,116.52078 1.192023,4.28658 1.191804,4.2865 3.116346,-3.17552 3.116347,-3.17552 -2.952515,-0.76139 10.599107,-41.1009 2.952516,0.761397 -1.192022,-4.286569 -1.192025,-4.286564 -3.116124,3.17558 -3.116349,3.175523 2.952521,0.761395 -10.599109,41.100888 z" />
      <path
         id="path1426"
         style="fill:#049cff;fill-opacity:1;stroke:none;stroke-width:0.117865;stroke-dasharray:none;stroke-opacity:1"
         d="m 69.19989,70.005753 -4.410292,-0.587276 -4.41015,-0.587452 1.696443,4.113103 1.696436,4.113104 1.859794,-2.41624 33.63566,25.889518 -1.859794,2.41625 4.410293,0.58728 4.41029,0.58726 -1.69658,-4.11291 -1.69644,-4.11312 -1.8598,2.416249 -33.635654,-25.88952 z" />
      <path
         id="path1428"
         style="fill:#049cff;fill-opacity:1;stroke:none;stroke-width:0.117865;stroke-dasharray:none;stroke-opacity:1"
         d="m 52.313426,128.64987 -2.959728,3.32198 -2.959802,3.32177 4.356762,0.90232 4.356756,0.90233 -0.95738,-2.8949 40.298958,-13.32739 0.95738,2.8949 2.959731,-3.32198 2.959727,-3.32199 -4.356688,-0.9021 -4.356765,-0.90233 0.957387,2.89492 -40.298952,13.32738 z" />
    </g>
    <rect
       style="display:inline;fill:none;fill-opacity:1;stroke:none;stroke-width:0.132496;stroke-dasharray:none;stroke-opacity:1"
       id="rect1931"
       width="79.437042"
       height="55.214081"
       x="29.400633"
       y="28.461235"
       sodipodi:insensitive="true" />
  </g>
</svg>
