<?xml version="1.0" encoding="UTF-8" standalone="no"?>
<svg
   viewBox="0 0 2200 1152.3809"
   version="1.1"
   id="svg55"
   width="2200"
   height="1152.381"
   sodipodi:docname="what-we-want-to-talk-noglyphs.svg"
   inkscape:version="1.2.2 (1:1.2.2+202305151915+b0a8486541)"
   xmlns:inkscape="http://www.inkscape.org/namespaces/inkscape"
   xmlns:sodipodi="http://sodipodi.sourceforge.net/DTD/sodipodi-0.dtd"
   xmlns:xlink="http://www.w3.org/1999/xlink"
   xmlns="http://www.w3.org/2000/svg"
   xmlns:svg="http://www.w3.org/2000/svg"
   xmlns:rdf="http://www.w3.org/1999/02/22-rdf-syntax-ns#"
   xmlns:cc="http://creativecommons.org/ns#"
   xmlns:dc="http://purl.org/dc/elements/1.1/">
  <sodipodi:namedview
     id="namedview34"
     pagecolor="#ffffff"
     bordercolor="#666666"
     borderopacity="1.0"
     inkscape:showpageshadow="2"
     inkscape:pageopacity="0.0"
     inkscape:pagecheckerboard="true"
     inkscape:deskcolor="#d1d1d1"
     showgrid="false"
     inkscape:zoom="0.58407734"
     inkscape:cx="901.42172"
     inkscape:cy="594.95546"
     inkscape:window-width="1920"
     inkscape:window-height="1016"
     inkscape:window-x="0"
     inkscape:window-y="27"
     inkscape:window-maximized="1"
     inkscape:current-layer="svg55" />
  <metadata
     id="metadata59">
    <rdf:RDF>
      <cc:Work
         rdf:about="">
        <dc:format>image/svg+xml</dc:format>
        <dc:type
           rdf:resource="http://purl.org/dc/dcmitype/StillImage" />
      </cc:Work>
    </rdf:RDF>
  </metadata>
  <defs
     id="defs20">
    <inkscape:path-effect
       effect="perspective-envelope"
       up_left_point="11.86,8.13"
       up_right_point="257.86575,8.13"
       down_left_point="9.55925,153.408"
       down_right_point="215.06547,123.63334"
       id="path-effect3098"
       is_visible="false"
       lpeversion="1"
       deform_type="perspective"
       horizontal_mirror="false"
       vertical_mirror="false"
       overflow_perspective="false" />
    <style
       id="style2">.cls-1{fill:#7929d2;}.cls-2{fill:#9454db;}.cls-3{fill:#af7fe4;}.cls-4{fill:url(#linear-gradient);}.cls-5{fill:url(#linear-gradient-2);}.cls-6{fill:url(#linear-gradient-3);}.cls-7{fill:url(#linear-gradient-4);}.cls-8{fill:#2d3136;}</style>
    <linearGradient
       id="linear-gradient"
       x1="173.22662"
       y1="83.041153"
       x2="269.62073"
       y2="83.041153"
       gradientUnits="userSpaceOnUse">
      <stop
         offset="0"
         stop-color="#7929d2"
         id="stop4" />
      <stop
         offset="1"
         stop-color="#0070c5"
         id="stop6" />
    </linearGradient>
    <linearGradient
       id="linear-gradient-2"
       x1="179.78728"
       y1="-1.87884"
       x2="178.9799"
       y2="93.40757"
       gradientUnits="userSpaceOnUse">
      <stop
         offset="0"
         stop-color="#00aeff"
         id="stop9" />
      <stop
         offset="1"
         stop-color="#9454db"
         id="stop11" />
    </linearGradient>
    <linearGradient
       id="linear-gradient-3"
       x1="232.84549"
       y1="37.632019"
       x2="212.26581"
       y2="1.98698"
       gradientUnits="userSpaceOnUse">
      <stop
         offset="0"
         stop-color="#66a9dc"
         id="stop14" />
      <stop
         offset="1"
         stop-color="#b1e4fa"
         id="stop16" />
    </linearGradient>
    <linearGradient
       id="linear-gradient-4"
       x1="237.4232"
       y1="9.7026796"
       x2="249.11588"
       y2="90.576942"
       xlink:href="#linear-gradient-2" />
    <linearGradient
       xlink:href="#linear-gradient-2"
       id="linearGradient61"
       gradientUnits="userSpaceOnUse"
       x1="179.78728"
       y1="-1.87884"
       x2="178.9799"
       y2="93.40757" />
    <filter
       inkscape:collect="always"
       style="color-interpolation-filters:sRGB"
       id="filter6818"
       x="-0.17318683"
       y="-0.22364193"
       width="1.3463776"
       height="1.4471227">
      <feGaussianBlur
         inkscape:collect="always"
         stdDeviation="5.7426288"
         id="feGaussianBlur6820" />
    </filter>
    <filter
       inkscape:collect="always"
       style="color-interpolation-filters:sRGB"
       id="filter6822"
       x="-0.17318683"
       y="-0.22364189"
       width="1.3463776"
       height="1.4471226">
      <feGaussianBlur
         inkscape:collect="always"
         stdDeviation="5.7426288"
         id="feGaussianBlur6824" />
    </filter>
    <filter
       inkscape:collect="always"
       style="color-interpolation-filters:sRGB"
       id="filter6826"
       x="-0.13790925"
       y="-0.17657385"
       width="1.2755576"
       height="1.3533013">
      <feGaussianBlur
         inkscape:collect="always"
         stdDeviation="5.7426288"
         id="feGaussianBlur6828" />
    </filter>
    <filter
       inkscape:collect="always"
       style="color-interpolation-filters:sRGB"
       id="filter6830"
       x="-0.11155396"
       y="-0.12530434"
       width="1.2233374"
       height="1.2503611">
      <feGaussianBlur
         inkscape:collect="always"
         stdDeviation="5.7426288"
         id="feGaussianBlur6832" />
    </filter>
    <filter
       inkscape:collect="always"
       style="color-interpolation-filters:sRGB"
       id="filter6834"
       x="-0.016493183"
       y="-0.022713801"
       width="1.0330262"
       height="1.0454396">
      <feGaussianBlur
         inkscape:collect="always"
         stdDeviation="5.7426288"
         id="feGaussianBlur6836" />
    </filter>
  </defs>
  <g
     id="Bubble"
     transform="matrix(-0.55138647,0,0,0.55138647,3181.5005,630.83416)"
     inkscape:label="Bubble"
     sodipodi:insensitive="true">
    <path
       d="m 2127.1954,169.4981 c 57.538,-10.42248 39.6465,-65.82793 -0.5542,-71.201238 -40.2005,-5.37334 -67.069,14.256578 -52.9141,38.237748 14.1549,23.98117 28.9623,16.63348 37.862,9.45098 -2.8302,5.68193 -6.7608,28.69585 15.6063,23.51251 z"
       id="path620"
       sodipodi:nodetypes="ccccc"
       style="font-size:12px;mix-blend-mode:normal;fill:none;fill-opacity:0.75;fill-rule:evenodd;stroke:#000000;stroke-width:5;stroke-dasharray:none;filter:url(#filter6818)" />
    <path
       d="m 2226.1681,84.22394 c 57.538,-10.42248 39.6465,-65.827943 -0.5542,-71.201251 -40.2005,-5.3733397 -67.069,14.256578 -52.9141,38.237748 14.1549,23.981183 28.9623,16.633483 37.862,9.450983 -2.8302,5.68193 -6.7608,28.69586 15.6063,23.51252 z"
       id="path621"
       sodipodi:nodetypes="ccccc"
       style="font-size:12px;mix-blend-mode:normal;fill:none;fill-opacity:0.75;fill-rule:evenodd;stroke:#000000;stroke-width:5;stroke-dasharray:none;filter:url(#filter6822)" />
    <path
       d="m 2323.3282,-76.462521 c -37.4287,-71.978349 -118.0445,71.9783488 -8.6374,71.9783488 109.4071,0 51.8244,-106.5279578 8.6374,-71.9783488 z"
       id="path619"
       style="mix-blend-mode:normal;fill:none;fill-opacity:0.75;fill-rule:evenodd;stroke:#000000;stroke-width:5;stroke-linecap:butt;stroke-linejoin:miter;stroke-dasharray:none;stroke-opacity:1;filter:url(#filter6826)" />
    <path
       d="m 2377.7947,-151.04445 c 53.6656,106.348581 149.8415,-115.11712 6.6328,-108.94667 -143.2088,6.17045 -60.9194,163.44295 -6.6328,108.94667 z"
       id="path622"
       style="font-size:12px;mix-blend-mode:normal;fill:none;fill-opacity:0.75;fill-rule:evenodd;stroke:#000000;stroke-width:7.02858;filter:url(#filter6830)" />
    <path
       d="m 2169.6339,-411.29029 c -23.0331,135.3193 178.5063,146.83584 190.0229,28.79134 37.4287,126.6819 210.1767,118.0445 233.2098,-43.18701 43.187,86.37402 181.3855,20.15394 115.1654,-54.70355 69.0992,51.82442 221.6933,-37.42874 86.374,-135.3193 89.2532,5.75827 164.1106,-282.15514 -63.3409,-187.14372 109.4071,-132.44016 -112.2862,-236.08897 -184.2646,-100.76969 8.6374,-71.97835 -77.7367,-60.46182 -86.3741,-11.51654 57.5827,-126.68194 -233.2098,-267.75944 -238.9681,5.75827 -60.4618,-138.19841 -236.0889,-57.58269 -166.9898,51.82441 -43.187,-48.94528 -74.8574,14.39567 -48.9452,31.67048 -112.2863,-123.80276 -253.3638,126.6819 -97.8906,161.23151 -169.869,25.91221 -51.8244,184.26458 34.5496,123.80276 -54.7036,40.30788 -5.7583,164.11065 115.1654,95.01143 -51.8244,71.97835 92.1323,123.80277 112.2862,34.54961 z"
       id="path614"
       sodipodi:nodetypes="ccccccccccccccc"
       style="mix-blend-mode:normal;fill:none;fill-opacity:0.75;fill-rule:evenodd;stroke:#000000;stroke-width:7.5;stroke-linecap:butt;stroke-linejoin:miter;stroke-dasharray:none;stroke-opacity:1;filter:url(#filter6834)" />
  </g>
  <g
     id="g3771"
     transform="matrix(-0.33885542,0,0,0.33885542,2362.6643,679.91858)"
     inkscape:label="Girl"
     sodipodi:insensitive="true">
    <path
       d="m 1053.4351,222.76071 c -1.0666,0.66666 -3.0666,1.33333 -4.4,1.33333 -1.3333,0 -4,1.2 -6.1333,2.8 -4.8,3.6 -15.7333,3.2 -15.0667,-0.53333 0.2667,-1.86667 -0.6666,-2.26667 -6.9333,-2.26667 -5.8666,0 -7.6,0.53333 -8.6666,2.53333 -1.7334,3.2 -9.7334,4.8 -13.20005,2.66667 -2,-1.33333 -3.2,-1.2 -5.6,0.53333 -2.8,1.86667 -3.6,1.86667 -7.73333,0.13334 -6,-2.4 -18.13334,-0.4 -20.53334,3.46666 -1.2,1.86667 -2.66666,2.26667 -5.2,1.73334 -5.73333,-1.06667 -23.46666,8.93333 -35.33333,20 -11.6,10.8 -13.2,13.2 -11.2,16.93333 2.53334,4.66667 -1.6,10.26667 -8.26666,11.6 -4.8,0.93333 -6.13334,1.86667 -8,6.13333 -1.6,3.06667 -3.6,5.2 -5.73334,5.73334 -3.2,0.8 -4.53333,3.73333 -2.13333,5.06666 0.66667,0.4 1.06667,3.46667 0.93333,6.66667 -0.13333,4.26667 -1.06666,6.93333 -3.2,9.2 -2.13333,2.26667 -2.66666,3.6 -1.6,4.26667 0.8,0.53333 1.06667,2.13333 0.53334,3.6 -0.53334,1.73333 0,3.19999 1.73333,4.39999 2.26667,1.6 2.26667,2.13334 0.4,6.26667 -2.53333,5.86667 -2.26667,22.93333 0.66667,27.2 1.2,2 3.33333,3.2 5.33333,3.2 2.53333,0 3.73333,1.06667 4.8,3.6 0.8,2.13333 2.53333,5.06667 4.13333,6.66667 1.86667,2 2.4,3.73333 1.73334,5.73333 -0.66667,2.13333 -0.13334,3.46667 1.86666,4.8 1.46667,1.06667 4,4.26667 5.6,7.2 3.06667,5.33333 4,5.86667 10.93334,5.33333 3.33333,-0.13333 3.73333,0.13334 2.93333,2.53334 -0.8,2.8 -0.13333,4.13333 6.8,11.46666 2.26667,2.53334 5.6,6.53334 7.6,9.06667 3.46667,4.53333 15.2,11.2 25.6,14.26667 6.66666,2 11.33333,6.26666 11.33333,10.13333 0,3.33333 -5.73333,8.53333 -9.33333,8.53333 -1.33334,0 -6.13334,1.46667 -10.8,3.2 -8.13333,3.06667 -8.66667,3.46667 -13.33333,12.13333 -4,7.33334 -4.8,10.26667 -4.8,17.06667 -0.13334,8.13333 -0.13334,8.13333 6.53333,14.26667 l 6.8,6.26666 -2.13333,20.4 c -2,19.6 -2.26667,20.93334 -8.26667,33.06667 -3.33333,7.06667 -6.53333,15.46667 -6.93333,18.8 -0.4,3.33333 -1.6,7.2 -2.66667,8.4 -1.46667,1.6 -1.6,2.8 -0.53333,4.8 1.06666,2 0.8,4 -1.06667,8.53333 -4,8.8 -4.8,14.93333 -2.26667,16.93333 1.2,1.06667 2.13334,3.2 2.13334,5.06667 0,4.8 3.33333,5.2 11.06666,1.2 3.86667,-1.86667 8.26667,-3.46667 10,-3.46667 2.13333,0 3.46667,-1.33333 4.93333,-4.8 2,-4.93333 2,-4.93333 8.53334,-4 7.2,0.93334 8.66666,0 10.93333,-7.46666 3.2,-11.06667 7.86667,-33.86667 7.86667,-38.8 0,-2.93333 1.6,-9.33333 3.46666,-14 2.26667,-5.73333 3.2,-9.86667 2.53334,-12.13333 -0.4,-1.86667 -1.33334,-7.33334 -1.86667,-12.13334 -0.66667,-4.8 -1.86667,-10.26666 -2.8,-12.13333 -1.2,-2.66667 -1.2,-4.26667 -0.13333,-6.26667 0.8,-1.46666 1.46666,-4.8 1.46666,-7.46666 0,-4.4 0.26667,-4.66667 8.4,-7.33334 11.33332,-3.73333 17.86672,-2.66666 20.40002,3.33334 1.4667,3.46666 3.3333,4.93333 9.3333,7.06666 4,1.6 8,2.53334 8.5333,2.13334 0.6667,-0.4 3.2,0.26666 5.6,1.46666 6,3.06667 20.2667,2 24.1334,-2 l 2.9333,-2.8 -2.6667,-4.93333 c -1.4666,-2.66667 -4.2666,-5.86667 -6.2666,-6.93333 -2.1334,-1.2 -3.7334,-3.06667 -3.7334,-4.26667 0,-5.06667 -18.5333,-16.93333 -30.2666,-19.46667 -4.9334,-0.93333 -10.8,-2.93333 -13.0667,-4.4 -2.4,-1.46666 -4.6666,-2.26666 -5.0666,-1.73333 -0.5334,0.4 -0.9334,-0.13333 -0.9334,-1.33333 0,-1.33333 -0.6666,-3.46667 -1.6,-4.8 -1.3333,-2.13333 -0.9333,-3.33333 2.2667,-7.46667 3.6,-4.8 4,-4.93333 9.8667,-4.26666 3.3333,0.4 8.7999,2 12.1333,3.46666 12.2666,5.6 21.6,2.66667 28,-8.66666 3.6,-6.53334 4.5333,-7.2 8.5333,-7.2 3.3333,0 5.0667,-0.93334 6.6667,-3.33334 1.2,-1.86666 3.8666,-3.73333 5.8666,-4.13333 2,-0.53333 4.1334,-1.6 4.6667,-2.4 0.8,-1.06667 1.3333,-0.93333 1.8667,0.26667 0.8,2.13333 3.0666,0.66666 3.0666,-2.13334 0,-1.2 3.3334,-5.73333 7.3334,-9.86666 4,-4.13334 7.3333,-8.53334 7.3333,-9.73334 0,-2 -2.4,-3.33333 -15.2,-8.13333 l -6.6667,-2.53333 -0.2666,-8.93334 c -0.4,-13.6 -4.9334,-19.33333 -17.8667,-23.06666 -1.8667,-0.53334 -4.2667,-1.73334 -5.3333,-2.66667 -1.0667,-0.93333 -4.4,-2 -7.2,-2.4 -2.8,-0.53333 -6.5334,-2 -8.1334,-3.6 -1.6,-1.46667 -4.5333,-2.66667 -6.5333,-2.66667 -3.8667,0 -13.3333,-4.26666 -14.9333,-6.8 -0.5333,-0.8 0.1333,-2.13333 1.3333,-2.8 1.2,-0.66666 3.7333,-2.53333 5.6,-4.26666 l 3.4667,-2.93334 -3.0667,-3.59999 c -2.9333,-3.46667 -3.4667,-3.6 -7.4667,-2 -3.4666,1.33333 -4.6666,1.33333 -5.9999,0 -1.4667,-1.46667 -0.9334,-2.4 2.6666,-5.46667 2.8,-2.26667 4.8,-5.33333 5.4667,-8.13333 0.8,-4.4 1.3333,-4.66667 7.4666,-5.73334 3.7334,-0.53333 10.1334,-0.66666 14.4,-0.26666 6.9334,0.66666 7.6,0.53333 7.6,-1.73334 0,-3.06666 -2.1333,-5.06666 -10.4,-9.6 -10.8,-6 -10.8,-9.73333 0.2667,-11.46666 3.4667,-0.66667 5.3333,-1.73334 5.8667,-3.46667 0.6666,-2.8 6.8,-6.4 10.8,-6.4 1.8666,0 3.6,1.73333 5.3333,4.93333 3.0667,6 8.9333,10.66667 17.3333,13.73334 5.6,2 6.1334,2.53333 6.8,7.33333 0.4,2.93333 1.2,6.13333 1.8667,7.06667 0.5333,1.06666 0.4,4.4 -0.5333,7.46666 -2,7.33334 0.4,12.8 7.2,16 6.2666,2.93333 7.8666,2.66667 11.2,-1.73333 2.8,-3.73333 3.2,-3.86667 16.8,-4.4 12.9333,-0.4 14.2666,-0.66667 19.7333,-4.4 3.2,-2.26667 5.8667,-5.33333 6.1333,-6.8 0.4,-2.53333 -0.2666,-2.66667 -14.6666,-2.8 -11.6,-0.13333 -15.6,0.4 -17.3334,1.86667 -1.3333,1.2 -3.2,1.73333 -4.4,1.33333 -4.2666,-1.73333 -1.6,-4.66667 7.7334,-8.93333 5.2,-2.4 11.6,-5.2 14,-6.4 4.5333,-2 8.2666,-7.46667 8.2666,-12.26667 0,-2 -1.6,-3.46667 -6.1333,-5.33333 -4.2667,-1.86667 -6.5333,-3.86667 -7.6,-6.66667 -0.8,-2.13333 -3.0667,-4.53333 -4.9333,-5.33333 -4,-1.73334 -12.5334,-11.46667 -11.3334,-13.2 0.4,-0.66667 2.5334,-1.6 4.6667,-2.13334 4.4,-0.93333 8.6667,-6.13333 7.6,-9.06666 -0.2667,-0.93334 -3.8667,-2.53334 -7.7333,-3.46667 -8.5334,-2.13333 -14.5334,-5.06667 -14.5334,-6.93333 0,-0.8 -1.4666,-1.06667 -3.8666,-0.53334 -4.6667,0.93334 -17.4667,-4.93333 -17.4667,-8 0,-2.8 -3.0667,-2.4 -4.9333,0.66667 -1.6,2.4 -2,2.4 -8,0.53333 -10.4,-3.06666 -11.6,-3.33333 -13.7334,-1.86666 z"
       id="path3503"
       style="fill:#000000;stroke:none;stroke-width:0.133333" />
    <path
       d="m 1319.0351,277.69404 c -2.9333,3.6 -5.2,5.73333 -13.4666,12.4 -3.6,2.93333 -7.3334,6.8 -8.2667,8.66667 -1.0667,1.86666 -3.8667,5.33333 -6.4,7.86666 -2.5333,2.53334 -6.9333,9.6 -9.7333,15.73334 -4,8.53333 -6,11.19999 -8.5334,11.86666 -1.7333,0.4 -4.4,2.53333 -5.8666,4.53333 -1.4667,2 -4.4,4.4 -6.6667,5.33334 -2.1333,0.93333 -4.1333,2.4 -4.2667,3.2 0,0.8 -0.2666,2 -0.2666,2.8 -0.5334,3.73333 -2.5334,4.8 -7.4667,4 -4.2667,-0.66667 -5.6,-0.4 -7.6,2 -1.3333,1.6 -3.8667,3.46666 -5.6,4.13333 -1.8667,0.8 -2.8,2 -2.4,3.06667 1.2,2.93333 -12.5333,3.73333 -14.8,0.93333 -1.3333,-1.6 -2.1333,-1.73333 -4.1333,-0.53333 -1.3334,0.8 -5.0667,2.26666 -8.2667,3.06666 -3.2,0.93334 -7.2,2.8 -8.8,4.4 -2.6667,2.4 -3.6,2.53334 -8.2667,1.2 -4.1333,-1.33333 -6,-1.2 -9.6,0.26667 -2.5333,0.93333 -7.8666,2.26667 -11.8666,2.66667 -10,1.33333 -13.7334,3.86666 -12.6667,8.66666 0.6667,3.2 0,4.4 -4.2667,8 -2.8,2.26667 -5.7333,4.13334 -6.5333,4.13334 -0.8,0 -2.5333,1.2 -3.8667,2.66666 -1.3333,1.46667 -4.6666,3.33334 -7.3333,4 -3.8667,1.06667 -6.2667,3.06667 -10.8,9.6 -7.6,10.8 -13.4667,16.53334 -18.1333,17.6 -2,0.53334 -5.2,2.4 -7.0667,4 -2.1333,2 -6.5333,3.73334 -12,4.66667 -4.8,0.93333 -10.2667,2.26667 -12.4,3.06667 -2.8,1.06666 -4.1333,0.93333 -5.7333,-0.4 -1.8667,-1.46667 -2.4,-1.33334 -4,0.8 -1.0667,1.33333 -1.8667,3.06666 -1.8667,3.6 0,2.26666 10,10.4 13.8667,11.2 2.1333,0.4 7.4666,4.26666 11.7333,8.39999 6.6667,6.26667 9.4667,10.53334 17.2,26 5.0667,10.26667 9.2,19.73334 9.2,21.06667 0,1.33333 1.4667,5.46667 3.3333,9.06667 4,7.73333 4,9.06666 1.0667,17.33333 -2,5.46667 -2,7.33333 -0.5333,13.86667 0.9333,4.13333 3.4666,10.93333 5.6,15.2 2.1333,4.13333 3.8666,8.4 3.8666,9.33333 0,0.93333 1.6,2.4 3.4667,3.2 3.0667,1.46667 3.8667,1.33333 6,-1.46667 2.5333,-3.06666 5.2,-10.93333 5.2,-15.2 0,-1.2 -1.4667,-3.06666 -3.3333,-3.86666 -4.6667,-2.13334 -5.4667,-6.66667 -3.0667,-18.26667 2.2667,-10.93333 1.6,-16.26667 -2.9333,-20.4 -1.4667,-1.33333 -2.6667,-3.33333 -2.6667,-4.26667 0,-1.06666 -0.8,-2.53333 -1.8667,-3.33333 -1.0666,-0.93333 -1.6,-2.66667 -1.2,-4 0.2667,-1.2 -0.4,-3.06667 -1.4666,-4 -1.2,-1.06667 -2.1334,-2.8 -2.1334,-4 0,-2.53333 -4.2666,-6.93333 -9.0666,-9.33333 -1.6,-0.8 -2.9334,-2.53334 -2.9334,-3.6 0,-4.26667 30.8,-31.2 35.6,-31.2 0.9334,0 4.5334,-2.66667 7.7334,-5.86667 3.3333,-3.2 7.8666,-6.53333 10.2666,-7.6 6.2667,-2.4 23.3334,-14.13333 30.4,-20.66666 8.2667,-7.6 16,-12.13334 23.6,-14 4.2667,-1.06667 7.4667,-2.8 9.6,-5.46667 2.1334,-2.66667 3.8667,-3.6 5.6,-3.06667 1.8667,0.66667 4.5334,-1.2 10.2667,-7.06666 10.2667,-10.8 24.4,-21.2 31.0667,-22.93334 4.1333,-1.2 8.4,-1.06666 17.2,0.13334 13.2,1.86666 15.0666,1.2 16.4,-5.46667 0.8,-3.73333 -1.2,-12 -2.8,-12 -0.5334,0 -2.4,-1.2 -4.1334,-2.53333 l -3.2,-2.4 3.2,-6.26667 c 1.6,-3.46667 4.9334,-7.46667 7.3334,-8.93333 6.9333,-4.26667 12.8,-11.73333 12,-15.2 -0.5334,-2.13333 0.4,-4 3.8666,-7.33333 3.7334,-3.6 4.5334,-5.2 4.2667,-9.6 -0.1333,-4.66667 -0.6667,-5.33334 -3.8667,-6 -4.6666,-0.93334 -4.6666,-2.8 0.1334,-10.53334 2.1333,-3.33333 3.6,-6.93333 3.2,-8 -1.0667,-2.8 -5.4667,-2.26666 -8.1334,1.06667 z"
       id="path3505"
       style="fill:#000000;stroke:none;stroke-width:0.133333" />
    <path
       d="m 1046.9018,316.89404 c -1.4667,1.06667 -2.8,3.06667 -2.8,4.4 0,3.73333 5.2,9.46666 8.5333,9.46666 1.7334,0 4.6667,1.2 6.5334,2.66667 3.4666,2.8 9.6,3.46667 12.8,1.46667 1.4666,-0.93334 1.3333,-1.73334 -0.5334,-4.66667 -2.8,-4.26666 -1.8666,-7.06666 2.6667,-8.26666 3.6,-0.93334 4.4,-3.33334 1.7333,-5.6 -2.8,-2.13334 -25.6,-1.73334 -28.9333,0.53333 z"
       id="path3507"
       style="fill:#000000;stroke:none;stroke-width:0.133333" />
    <path
       d="m 1091.8351,349.9607 c -4.8,1.2 -6.9333,2.53334 -9.6,6.4 -1.8666,2.8 -2.8,5.06667 -2.1333,5.06667 0.6667,0 1.6,-0.66667 2.1333,-1.46667 0.5334,-0.93333 3.0667,-1.2 6.8,-0.66666 6,0.8 13.7334,-1.46667 15.6,-4.4 0.5334,-0.8 0.5334,-2.66667 0.1334,-4.13334 -0.9334,-2.93333 -3.3334,-3.2 -12.9334,-0.8 z"
       id="path3509"
       style="fill:#000000;stroke:none;stroke-width:0.133333" />
    <path
       d="m 1089.5685,370.49404 c -5.6,2.66666 -6.5334,5.06666 -2.9334,6.26666 2.2667,0.66667 2.5334,1.33334 1.4667,3.33334 -1.8667,3.46666 -1.7333,4.93333 0.8,5.86666 4.6667,1.73334 13.8667,-8.13333 13.8667,-14.93333 0,-2.4 -0.6667,-2.93333 -4.2667,-2.93333 -2.4,0 -6.4,1.06666 -8.9333,2.4 z"
       id="path3511"
       style="fill:#000000;stroke:none;stroke-width:0.133333" />
    <path
       d="m 1017.5685,523.9607 c -9.8667,12.66667 -12.9333,20.8 -13.7333,36.13333 -0.4,8 -1.2,12.66667 -2.1334,13.06667 -0.9333,0.26667 -1.6,2.93333 -1.6,6.26667 0,4.26666 -1.86665,9.46666 -7.59998,20.79999 -7.46667,14.8 -7.73334,15.46667 -7.46667,25.46667 0.13333,8.26667 0.66667,10.93333 2.93333,13.86667 2.93334,3.86666 3.6,7.86666 1.46667,9.2 -2.13333,1.33333 -1.46667,2.8 2,4.4 2.93333,1.33333 3.33333,2.26666 3.33333,9.33333 0,5.2 0.8,8.8 2.26667,10.93333 1.33333,1.86667 3.33335,5.06667 4.53335,7.33334 1.3333,2.53333 3.3333,4 5.0667,4 1.4666,0 3.7333,1.33333 4.8,2.8 1.3333,2.13333 3.8666,3.06666 9.5999,3.6 5.2,0.53333 8.2667,1.6 9.4667,3.2 1.7333,2.26666 1.8667,2.26666 3.6,-0.13334 2.2667,-3.06666 5.2,-1.33333 6.5333,4 0.5334,1.86667 1.4667,2.93334 2.1334,2.53334 2.5333,-1.6 1.3333,6.93333 -1.4667,10.53333 -2.5333,3.2 -3.2,3.46667 -10,2.66667 l -7.2,-0.93334 v 7.33334 c 0,6.39999 0.5333,7.73333 4.4,11.33333 2.2667,2.26666 6.2667,4.66666 8.8,5.33333 5.8667,1.46667 6.2667,2.8 2.2667,7.73333 -3.2,3.86667 -3.3334,4 -9.3334,2.26667 -3.3333,-0.8 -7.8666,-1.6 -9.8666,-1.6 -5.6,0 -12.2667,-4.66667 -12.2667,-8.66667 0,-1.73333 -1.0666,-3.86666 -2.4,-4.53333 -3.0666,-1.6 -8.79998,-16.53333 -7.73332,-19.86666 0.53334,-1.73334 -2.53333,-5.86667 -11.33333,-14.93334 -6.66667,-6.93333 -12.8,-14.26666 -13.46667,-16.26666 -0.66666,-2 -2.66666,-4.53334 -4.4,-5.6 -1.86666,-1.33334 -3.86666,-4.4 -4.66666,-7.73334 -0.93334,-3.2 -3.2,-7.6 -5.33334,-9.73333 -2,-2.26667 -4.13333,-5.33333 -4.66666,-7.06667 -0.8,-3.06666 -5.2,-4 -6.66667,-1.6 -0.4,0.66667 -1.86666,1.33334 -3.2,1.33334 -5.2,0 -5.86666,3.33333 -2.13333,10.66666 2,3.86667 3.33333,7.06667 3.06667,7.33334 -0.26667,0.13333 -1.73334,1.06666 -3.33334,1.86666 -2.66666,1.33334 -3.06666,2.53334 -3.06666,10.66667 0,4.93333 -0.4,9.46667 -0.93334,9.86667 -1.46666,1.6 -5.73333,14.66666 -5.73333,17.86666 0,1.73334 0.66667,3.06667 1.33333,3.06667 0.8,0 1.33334,1.2 1.33334,2.66667 0,2.26666 0.8,2.66666 3.6,2.4 5.46666,-0.53334 5.46666,3.33333 0,11.46666 -2.53334,3.73333 -4.93334,8.13333 -5.46667,9.73333 -0.53333,1.6 -2.4,3.86667 -4.26667,5.06667 -3.33333,2.13333 -3.33333,2.4 -2.8,15.06667 0.26667,7.06666 1.2,14.66666 2.13334,16.66666 0.8,2.13334 1.46666,7.06667 1.46666,11.06667 0,5.2 0.53334,7.46667 2,8 1.33334,0.53333 1.6,1.46667 0.8,3.06667 -0.66666,1.2 -1.73333,6.53333 -2.26666,12 -0.8,8.66666 -0.53334,10 2,13.46666 3.33333,4.66667 3.46666,7.06667 0.53333,11.6 -2.26667,3.33334 -2.26667,3.33334 0.66667,2.53334 3.73333,-1.2 3.73333,0 -0.4,5.33333 -1.86667,2.4 -4.13334,7.46667 -5.2,11.46667 -1.06667,3.86666 -2.93334,10.66666 -4.13334,14.93333 -1.33333,4.53333 -2,10 -1.6,13.06666 0.53334,4 0.13334,5.46667 -1.86666,6.93334 -1.46667,0.93333 -3.06667,4.13333 -3.46667,6.93333 -0.4,2.93333 -1.6,5.73333 -2.66667,6.26667 -0.93333,0.53333 -1.73333,1.86666 -1.73333,2.93333 0,3.73333 8.4,20.53333 10.53333,21.2 6.8,1.86667 12.66667,2.13333 16.66667,0.66667 3.46667,-1.2 6.26667,-1.2 14.26666,0.53333 5.46667,1.06667 12.13334,2.4 14.8,2.93333 3.2,0.53334 5.6,1.86667 6.53334,3.6 2.26666,4.13334 1.86666,19.46667 -0.53334,27.6 -1.33333,4 -2.26666,9.86667 -2.26666,12.93334 0,3.33333 -0.8,6.26666 -2,7.2 -1.06667,0.93333 -2,2.66666 -2,4 0,1.33333 -0.8,3.06666 -1.86667,3.86666 -0.93333,0.8 -1.46667,2.93334 -1.06667,4.8 0.26667,1.86667 -0.4,4.8 -1.73333,6.79998 -2.8,4.2667 -2,11.0667 1.86667,15.8667 2.13333,2.8 2.4,4.1333 1.33333,7.7333 -2.53333,8.2667 -3.33333,18.4 -2,28.9334 4.13333,35.7333 3.73333,34.4 9.6,34.2666 6.66667,-0.1333 11.6,4.1334 12.93333,11.2 2.66667,14.6667 2.66667,18.2667 -0.26666,20.1334 -3.6,2.2666 -3.6,2.9333 0.8,11.4666 3.46666,6.5334 3.6,7.2 1.46666,8.4 -1.33333,0.8 -2.4,1.8667 -2.4,2.5334 0,2.5333 4.93334,1.3333 8,-2 4.26667,-4.5334 6.40002,-2.2667 3.2,3.2 -2.8,4.8 -2.26666,5.4666 6.26672,8.6666 3.8666,1.3334 6.6666,3.3334 7.6,5.4667 0.8,1.8667 2.5333,3.3333 3.6,3.3333 1.2,0 3.4666,0.8 5.0666,1.8667 2.1333,1.3333 10.1333,2.2667 27.6,3.0667 39.0667,1.6 48.2667,1.2 62,-2.9334 15.7333,-4.6666 18,-5.8666 21.6,-11.2 6.4,-9.4666 2.8,-27.2 -5.0667,-24.8 -1.8666,0.6667 -4.1333,-0.5333 -7.8666,-3.8666 -7.7334,-6.9334 -16.1334,-6.1334 -26.1334,2.2666 -5.0666,4.4 -6.6666,4.4 -8.6666,0.8 -1.0667,-2.1333 -1.0667,-3.0666 0.1333,-3.8666 1.2,-0.8 1.0667,-1.8667 -0.4,-4.8 -2.1333,-4.2667 -14.4,-15.2 -16.9333,-15.2 -1.2,0 -1.3334,-2.8 -0.6667,-10.4 0.5333,-5.6 1.0667,-17.2 1.2,-25.6 0.1333,-8.4 0.6667,-16.1334 1.3333,-17.0667 0.5334,-1.0667 1.0667,-6.2667 0.9334,-11.6 -0.1334,-10.1333 2,-21.7333 5.7333,-30.2667 1.2,-2.8 2.1333,-6.66665 2.1333,-8.66665 0,-2 0.6667,-7.06666 1.6,-11.19999 1.2,-5.6 2.2667,-7.86667 4.1334,-8.4 2,-0.53334 2.2666,-1.2 1.4666,-3.73334 -1.2,-3.33333 -1.3333,-7.2 -0.1333,-22.4 l 0.6667,-10 5.7333,-0.13333 c 8.5333,-0.13333 8.6667,-0.26667 10.1333,-3.6 1.2,-2.4 5.4667,-4.66667 18.5334,-9.6 9.4666,-3.46667 19.4666,-6.66667 22.4,-7.06667 2.8,-0.4 11.8666,0.4 20,1.73334 l 14.9333,2.4 6,-3.46667 c 7.0667,-4.13333 13.6,-4.53333 23.3333,-1.6 10.8,3.2 14.9334,2.66667 19.8667,-2.8 2.9333,-3.06667 4.5333,-4.13333 4.9333,-2.93333 0.4,1.2 3.8667,1.73333 12.5334,1.86666 6.6666,0.13334 14.6666,0.53334 18,1.06667 5.8666,0.93333 6,0.8 10.2666,-5.2 2.4,-3.33333 4.2667,-7.46667 4.2667,-9.06667 0,-3.73333 -3.4667,-13.86666 -6,-17.46666 -1.0667,-1.46667 -2,-3.73334 -2,-4.93334 0,-3.6 -5.6,-20.4 -7.6,-22.79999 -1.0667,-1.2 -4.1333,-2.53334 -6.8,-3.06667 -6.5333,-1.2 -15.0667,-6.26667 -19.6,-11.46667 -1.8667,-2.4 -5.8667,-6 -8.8,-8.13333 -3.6,-2.66667 -6.6667,-6.53333 -9.3333,-12.13333 -2.1334,-4.53334 -3.8667,-8.93334 -3.8667,-9.86667 0,-0.8 -1.8667,-2.66667 -4,-4 -2.4,-1.33333 -3.7333,-3.06667 -3.3333,-4.26667 0.4,-0.93333 0,-2.66666 -0.8,-3.6 -1.2,-1.46666 -1.2,-2.26666 0,-3.73333 1.2,-1.46667 1.0666,-2 -0.6667,-2.66667 -1.2,-0.4 -2.6667,-0.4 -3.3333,0 -2.2667,1.33334 -5.2,-2.4 -5.2,-6.66666 0,-2.8 -1.0667,-5.33334 -3.2,-7.33334 -1.8667,-1.73333 -4,-4.93333 -4.9334,-7.2 -0.9333,-2.4 -5.2,-10.53333 -9.4666,-18.26666 -4.2667,-7.73334 -7.4667,-14.8 -7.0667,-15.86667 0.4,-0.93333 -0.4,-3.6 -1.8667,-6 -3.6,-5.86667 -4.5333,-11.86666 -2.8,-17.73333 1.3334,-4.26667 1.2,-6.13333 -1.0666,-11.73333 -1.4667,-3.73334 -3.0667,-10.4 -3.6,-14.8 -0.6667,-6.13334 -1.8667,-9.33334 -4.6667,-12.8 -6,-7.33334 -16,-22.26667 -16,-24.13334 0,-0.8 -1.4667,-4.8 -3.3333,-8.66666 -2.4,-5.2 -3.6,-10.8 -4.4,-21.06667 -0.8,-9.46667 -1.8667,-14.53333 -3.0667,-15.46667 -2.1333,-1.33333 -32.5333,-0.66666 -36.1333,0.93334 -4,1.6 -2.6667,4.13333 4.2666,8.66666 l 6.8,4.26667 -2.5333,4.4 c -1.4667,2.26667 -3.6,5.73333 -4.8,7.6 -1.6,2.4 -1.8667,3.73333 -0.8,4.4 0.8,0.4 3.6,5.2 6.2667,10.4 2.5333,5.33333 6.5333,11.6 8.5333,14 2.1333,2.4 3.8667,4.8 3.8667,5.46667 0,0.66666 1.8666,3.46666 4.1333,6.26666 4,5.06667 4.1333,5.46667 3.3333,14.53334 -2.1333,22.93333 -2,30.53333 0.5334,36.26666 1.3333,3.06667 3.4666,10.53333 4.6666,16.66667 1.3334,6.13333 4,16.8 6.1334,23.73333 2.1333,6.93333 3.6,13.33333 3.3333,14.26667 -0.4,0.8 -3.0667,2.8 -6,4.26666 -2.9333,1.6 -5.6,4 -6.1333,5.46667 -2,6.4 -11.3334,9.73333 -11.3334,4 0,-1.46667 -0.8,-2.66667 -1.7333,-2.66667 -2.6667,0 -7.6,-9.73333 -7.6,-15.2 0,-2.66666 -1.2,-7.2 -2.5333,-9.86666 -1.4667,-2.8 -2.9334,-8 -3.4667,-11.6 -0.5333,-3.73334 -1.7333,-7.46667 -2.5333,-8.53334 -0.8,-1.06666 -1.4667,-8.13333 -1.6,-17.33333 -0.1334,-15.86666 -0.2667,-17.2 -3.7334,-29.2 -2.4,-8.8 -4.1333,-10.93333 -8.6666,-10.93333 -4.9334,0 -19.6,-7.2 -21.4667,-10.53333 -1.6,-3.2 0,-7.33334 3.4667,-8.66667 1.0666,-0.4 5.3333,-0.8 9.2,-0.8 10.1333,0 10,0.93333 3.8666,-32 -1.7333,-8.66667 -2.6666,-10.66667 -7.3333,-15.46667 l -5.3333,-5.46666 2,-5.06667 c 2.9333,-6.93333 2.8,-7.33333 -3.3334,-7.33333 -4.8,0 -6.4,-0.93334 -12.9333,-7.2 -5.8667,-5.6 -7.2,-7.73333 -6,-8.93333 1.2,-1.2 1.0667,-2 -0.4,-3.46667 -2.5333,-2.53333 -2.4,-3.86667 0.9333,-7.2 2.8,-2.8 2.9334,-2.8 4.2667,-0.4 0.6667,1.46667 1.4667,2.66667 1.6,2.93333 0.1333,0.13334 1.3333,0 2.5333,-0.53333 3.4667,-1.33333 2.5334,-4.93333 -2.5333,-9.86667 -5.4667,-5.33333 -5.7333,-9.46666 -0.6667,-10.66666 3.4667,-0.8 3.6,-1.33334 2.1334,-12.26667 -0.5334,-4.66667 -0.2667,-4.93333 3.6,-5.86667 7.8666,-1.6 11.6,-4.26666 11.6,-8.26666 0,-5.6 -2.2667,-6.93334 -11.8667,-6.93334 -6.5333,0 -9.3333,-0.66666 -11.3333,-2.4 -2.9334,-2.66666 -13.4667,-6.93333 -16.9334,-6.93333 -1.0666,0 -5.2,4.13333 -9.0666,9.2 z m 30.5333,221.33333 c 0,2.53333 -3.2,6.8 -5.0667,6.8 -0.5333,0 -1.8666,-0.66667 -2.9333,-1.33334 -1.7333,-1.2 -1.4667,-1.86666 1.7333,-4.66666 4.5334,-4 6.2667,-4.26667 6.2667,-0.8 z"
       id="path3513"
       style="fill:#000000;stroke:none;stroke-width:0.133333" />
    <path
       d="m 1103.3018,687.29403 c -0.5333,2.13333 0,9.73333 1.2,17.33333 1.2,7.33334 2.4,15.86667 2.6667,18.8 1.4666,14.93333 8.6666,35.33333 12.4,35.33333 1.6,0 2,-0.66666 1.2,-3.06666 -0.5334,-1.6 -0.8,-5.73334 -0.8,-9.2 0.1333,-3.46667 -0.6667,-9.06667 -1.8667,-12.4 -1.0667,-3.33334 -2,-8.66667 -2,-11.73333 0,-3.06667 -1.2,-10.13334 -2.6667,-15.6 -1.4666,-5.46667 -2.6666,-11.33334 -2.6666,-12.93334 0,-1.6 -1.4667,-4.66666 -3.2,-6.66666 l -3.2,-3.73334 z"
       id="path3515"
       style="fill:#000000;stroke:none;stroke-width:0.133333" />
    <text
       xml:space="preserve"
       style="font-style:normal;font-variant:normal;font-weight:normal;font-stretch:normal;font-size:31.4785px;line-height:1.25;font-family:'Clear Sans Thin';-inkscape-font-specification:'Clear Sans Thin, Normal';font-variant-ligatures:normal;font-variant-caps:normal;font-variant-numeric:normal;font-variant-east-asian:normal;letter-spacing:0px;word-spacing:0px;fill:#a3a3a3;fill-opacity:1;stroke:none;stroke-width:2.95111"
       x="-1279.099"
       y="1236.4789"
       id="text29982"
       transform="scale(-1,1)"><tspan
         sodipodi:role="line"
         x="-1279.099"
         y="1236.4789"
         style="font-style:normal;font-variant:normal;font-weight:normal;font-stretch:normal;font-size:31.4785px;font-family:'Clear Sans Thin';-inkscape-font-specification:'Clear Sans Thin, Normal';font-variant-ligatures:normal;font-variant-caps:normal;font-variant-numeric:normal;font-variant-east-asian:normal;fill:#a3a3a3;fill-opacity:1;stroke-width:2.95111"
         id="tspan30101">Banksy’s images for non-commercial,</tspan><tspan
         sodipodi:role="line"
         x="-1279.099"
         y="1275.827"
         style="font-style:normal;font-variant:normal;font-weight:normal;font-stretch:normal;font-size:31.4785px;font-family:'Clear Sans Thin';-inkscape-font-specification:'Clear Sans Thin, Normal';font-variant-ligatures:normal;font-variant-caps:normal;font-variant-numeric:normal;font-variant-east-asian:normal;fill:#a3a3a3;fill-opacity:1;stroke-width:2.95111"
         id="tspan30105">personal amusement.</tspan><tspan
         sodipodi:role="line"
         x="-1279.099"
         y="1315.1752"
         style="font-style:normal;font-variant:normal;font-weight:normal;font-stretch:normal;font-size:31.4785px;font-family:'Clear Sans Thin';-inkscape-font-specification:'Clear Sans Thin, Normal';font-variant-ligatures:normal;font-variant-caps:normal;font-variant-numeric:normal;font-variant-east-asian:normal;fill:#a3a3a3;fill-opacity:1;stroke-width:2.95111"
         id="tspan31675">https://pestcontroloffice.com/use.asp</tspan></text>
  </g>
  <g
     id="Ribbons"
     inkscape:label="Ribbons"
     sodipodi:insensitive="true">
    <text
       xml:space="preserve"
       style="font-style:normal;font-variant:normal;font-weight:bold;font-stretch:normal;font-size:42.6667px;line-height:1.25;font-family:'Clear Sans';-inkscape-font-specification:'Clear Sans, Bold';font-variant-ligatures:normal;font-variant-caps:normal;font-variant-numeric:normal;font-variant-east-asian:normal;letter-spacing:0px;word-spacing:0px;fill:#4f4f4f;fill-opacity:1;stroke:none"
       x="399.26819"
       y="345.80396"
       id="libs"
       inkscape:label="libs"><tspan
         sodipodi:role="line"
         id="tspan771"
         x="399.26819"
         y="345.80396">libs</tspan></text>
    <text
       xml:space="preserve"
       style="font-style:normal;font-variant:normal;font-weight:bold;font-stretch:normal;font-size:42.6667px;line-height:1.25;font-family:'Clear Sans';-inkscape-font-specification:'Clear Sans, Bold';font-variant-ligatures:normal;font-variant-caps:normal;font-variant-numeric:normal;font-variant-east-asian:normal;letter-spacing:0px;word-spacing:0px;fill:#4f4f4f;fill-opacity:1;stroke:none"
       x="527.28143"
       y="490.72986"
       id="tools"
       inkscape:label="tools"><tspan
         sodipodi:role="line"
         id="tspan775"
         x="527.28143"
         y="490.72986">tools</tspan></text>
    <text
       xml:space="preserve"
       style="font-style:normal;font-variant:normal;font-weight:bold;font-stretch:normal;font-size:42.6667px;line-height:1.25;font-family:'Clear Sans';-inkscape-font-specification:'Clear Sans, Bold';font-variant-ligatures:normal;font-variant-caps:normal;font-variant-numeric:normal;font-variant-east-asian:normal;letter-spacing:0px;word-spacing:0px;fill:#4f4f4f;fill-opacity:1;stroke:none"
       x="141.18398"
       y="373.22324"
       id="hals"
       inkscape:label="hals"><tspan
         sodipodi:role="line"
         id="tspan779"
         x="141.18398"
         y="373.22324">HALs</tspan></text>
    <text
       xml:space="preserve"
       style="font-style:normal;font-variant:normal;font-weight:bold;font-stretch:normal;font-size:42.6667px;line-height:1.25;font-family:'Clear Sans';-inkscape-font-specification:'Clear Sans, Bold';font-variant-ligatures:normal;font-variant-caps:normal;font-variant-numeric:normal;font-variant-east-asian:normal;letter-spacing:0px;word-spacing:0px;fill:#4f4f4f;fill-opacity:1;stroke:none"
       x="146.25391"
       y="506.5632"
       id="bootloader"
       inkscape:label="bootloader"><tspan
         sodipodi:role="line"
         id="tspan783"
         x="146.25391"
         y="506.5632">bootloader</tspan></text>
    <text
       xml:space="preserve"
       style="font-style:normal;font-variant:normal;font-weight:bold;font-stretch:normal;font-size:64px;line-height:1.25;font-family:'Clear Sans';-inkscape-font-specification:'Clear Sans, Bold';font-variant-ligatures:normal;font-variant-caps:normal;font-variant-numeric:normal;font-variant-east-asian:normal;letter-spacing:0px;word-spacing:0px;fill:#000000;fill-opacity:1;stroke:none"
       x="53.97884"
       y="282.01263"
       id="modules"
       inkscape:label="modules"><tspan
         sodipodi:role="line"
         id="tspan539"
         x="53.97884"
         y="282.01263">modules</tspan></text>
  </g>
  <g
     id="Zephyr"
     inkscape:label="Zephyr"
     transform="translate(-580.33581,-431.02685)"
     sodipodi:insensitive="true">
    <path
       class="cls-8"
       d="m 590.336,578.09515 v -21.9089 l 58.45428,-81.74391 h -55.69265 v -23.75 h 86.71485 v 20.89627 l -59.0066,82.75654 h 60.5715 v 23.75 z"
       id="path38"
       style="fill:#4f4f4f;fill-opacity:1;stroke-width:2.41656" />
    <path
       class="cls-8"
       d="m 717.53528,536.02645 q 0.6431,12.8888 6.2597,18.5029 5.6141,5.6159 17.6743,5.6153 a 39.188896,39.188896 0 0 0 12.2892,-1.7491 19.687607,19.687607 0 0 0 9.2515,-6.71991 l 17.6743,12.61141 a 35.757665,35.757665 0 0 1 -15.0508,12.5193 q -9.2515,4.1425 -25.2688,4.1425 -23.8444,0 -35.5789,-12.5194 -11.7369,-12.5181 -11.7369,-37.83418 0,-51.82581 46.3952,-51.82639 20.6177,0 31.4365,11.64482 10.8139,11.64605 10.8163,33.9219 v 11.69085 z m 40.5959,-16.38561 q 0,-22.00028 -19.2393,-22.00091 a 21.995571,21.995571 0 0 0 -10.4021,2.16328 16.172544,16.172544 0 0 0 -6.4898,6.44377 40.642339,40.642339 0 0 0 -3.8203,13.39386 z"
       id="path40"
       style="fill:#4f4f4f;fill-opacity:1;stroke-width:2.41656" />
    <path
       class="cls-8"
       d="m 888.55468,529.1224 a 74.253321,74.253321 0 0 1 -4.6948,27.43205 39.365837,39.365837 0 0 1 -13.4399,18.1347 34.955752,34.955752 0 0 1 -20.8962,6.2597 39.791419,39.791419 0 0 1 -27.3401,-10.0339 v 43.5415 h -23.75 V 481.53048 h 21.909 v 9.48156 a 57.011592,57.011592 0 0 1 13.9462,-8.97526 40.833151,40.833151 0 0 1 16.7999,-3.2679 q 18.3176,0 27.8924,12.88754 9.571,12.88879 9.5735,37.46598 z m -24.4864,0.36824 q 0,-14.08427 -4.8789,-21.9549 a 16.011577,16.011577 0 0 0 -14.5445,-7.87061 29.301957,29.301957 0 0 0 -11.9209,2.71559 39.908114,39.908114 0 0 0 -10.5402,6.67392 v 42.25279 a 37.970585,37.970585 0 0 0 9.3435,6.02952 26.601301,26.601301 0 0 0 11.4607,2.6236 17.71221,17.71221 0 0 0 15.4191,-8.33094 q 5.6612,-8.33026 5.6612,-22.13897 z"
       id="path42"
       style="fill:#4f4f4f;fill-opacity:1;stroke-width:2.41656" />
    <path
       class="cls-8"
       d="m 967.97788,578.09515 v -53.20722 q 0,-15.27975 -2.8537,-20.25188 a 10.677736,10.677736 0 0 0 -10.1259,-4.97087 q -10.5886,0 -25.499,13.9922 v 64.43777 h -23.75 v -137.0683 h 23.75 v 53.0231 a 54.688693,54.688693 0 0 1 16.1095,-11.41469 40.527577,40.527577 0 0 1 16.7538,-3.86626 q 16.1991,0 22.7834,9.11332 6.5807,9.11338 6.5819,25.77508 v 64.43785 z"
       id="path44"
       style="fill:#4f4f4f;fill-opacity:1;stroke-width:2.41656" />
    <path
       class="cls-8"
       d="m 1002.9415,591.07475 a 43.129226,43.129226 0 0 0 13.9,2.6696 14.65441,14.65441 0 0 0 9.3896,-3.2219 q 4.0479,-3.2231 8.3769,-13.3478 l 2.4854,-5.7074 -34.8884,-89.93677 h 24.6704 l 22.8293,61.67619 23.3817,-61.67619 h 24.1182 l -41.5162,103.19257 a 76.913282,76.913282 0 0 1 -9.8498,18.4108 28.18594,28.18594 0 0 1 -11.1845,8.6531 41.940735,41.940735 0 0 1 -16.0635,2.6695 79.048607,79.048607 0 0 1 -20.71212,-2.7616 z"
       id="path46"
       style="fill:#4f4f4f;fill-opacity:1;stroke-width:2.41656" />
    <path
       class="cls-8"
       d="m 1166.5021,504.7281 a 21.956906,21.956906 0 0 0 -9.7578,-1.84108 26.261895,26.261895 0 0 0 -12.5653,3.17587 55.377994,55.377994 0 0 0 -12.1972,9.25143 v 62.78083 h -23.75 v -96.56467 h 23.75 v 13.80811 a 61.998753,61.998753 0 0 1 13.0717,-10.95444 29.150487,29.150487 0 0 1 15.6492,-4.32652 21.018699,21.018699 0 0 1 10.4941,1.93313 z"
       id="path48"
       style="fill:#4f4f4f;fill-opacity:1;stroke-width:2.41656" />
    <path
       class="cls-8"
       d="m 1198.0644,483.60336 h -2.1846 v 5.01877 h -2.982 v -14.00578 h 6.5524 a 4.3616574,4.3616574 0 0 1 4.7037,4.51482 4.0191577,4.0191577 0 0 1 -3.0673,4.1571 l 3.1508,5.33386 h -3.4233 z m 0.9444,-6.42538 h -3.1291 v 3.86375 h 3.129 a 1.9385681,1.9385681 0 1 0 0,-3.86375 z"
       id="path50"
       style="fill:#4f4f4f;fill-opacity:1;stroke-width:2.41656" />
    <path
       class="cls-8"
       d="m 1198.5665,496.82852 a 15.209278,15.209278 0 1 1 15.2107,-15.20986 15.226339,15.226339 0 0 1 -15.2107,15.20986 z m 0,-28.49444 a 13.285161,13.285161 0 1 0 13.2866,13.2847 13.300143,13.300143 0 0 0 -13.2866,-13.28475 z"
       id="path52"
       style="fill:#4f4f4f;fill-opacity:1;stroke-width:2.41656" />
  </g>
  <g
     id="Kite"
     inkscape:label="Kite"
     transform="translate(61.633005)"
     sodipodi:insensitive="true">
    <polygon
       class="cls-1"
       points="132.385,148.72 137.154,121.601 105.31,135.046 "
       id="polygon22"
       transform="matrix(2.4165646,0,0,2.4165646,173.32929,79.972765)"
       style="fill:#7929d2" />
    <polygon
       class="cls-2"
       points="42.309,153.408 68.401,139.419 34.434,126.703 "
       id="polygon24"
       transform="matrix(2.4165646,0,0,2.4165646,173.32929,79.972765)"
       style="fill:#9454db" />
    <polygon
       class="cls-3"
       points="68.401,139.419 84.508,115.518 105.31,135.046 "
       id="polygon26"
       transform="matrix(2.4165646,0,0,2.4165646,173.32929,79.972765)"
       style="fill:#af7fe4" />
    <polygon
       class="cls-3"
       points="8.759,101.076 38.535,97.167 34.434,126.703 "
       id="polygon28"
       transform="matrix(2.4165646,0,0,2.4165646,173.32929,79.972765)"
       style="fill:#af7fe4" />
    <polygon
       class="cls-4"
       points="258.666,94.416 137.154,121.601 220.982,44.482 "
       id="polygon30"
       style="fill:url(#linear-gradient)"
       transform="matrix(2.4165646,0,0,2.4165646,173.32929,79.972765)" />
    <polygon
       class="cls-5"
       points="220.982,44.482 137.154,121.601 172.959,8.13 "
       id="polygon32"
       style="fill:url(#linearGradient61)"
       transform="matrix(2.4165646,0,0,2.4165646,173.32929,79.972765)" />
    <polygon
       class="cls-6"
       points="220.982,44.482 172.959,8.13 258.666,8.13 "
       id="polygon34"
       style="fill:url(#linear-gradient-3)"
       transform="matrix(2.4165646,0,0,2.4165646,173.32929,79.972765)" />
    <polygon
       class="cls-7"
       points="220.982,44.482 258.666,94.416 258.666,8.13 "
       id="polygon36"
       style="fill:url(#linear-gradient-4)"
       transform="matrix(2.4165646,0,0,2.4165646,173.32929,79.972765)" />
  </g>
  <g
     id="MyOwn"
     inkscape:label="MyOwn"
     sodipodi:insensitive="true">
    <text
       xml:space="preserve"
       style="font-style:italic;font-variant:normal;font-weight:normal;font-stretch:normal;font-size:64px;line-height:1.25;font-family:'Clear Sans';-inkscape-font-specification:'Clear Sans, Italic';font-variant-ligatures:normal;font-variant-caps:normal;font-variant-numeric:normal;font-variant-east-asian:normal;letter-spacing:0px;word-spacing:0px;fill:#000000;fill-opacity:1;stroke:none"
       x="1181.8928"
       y="121.24444"
       id="myown_text"
       inkscape:label="myown_text"><tspan
         sodipodi:role="line"
         id="tspan1363"
         x="1181.8928"
         y="121.24444">MY OWN</tspan></text>
    <g
       id="apps_loose"
       inkscape:label="apps_loose">
      <path
         style="display:inline;fill:#020505;fill-opacity:1;fill-rule:nonzero;stroke:none;stroke-width:0.136185"
         d="m 980.28162,201.40697 c -20.77452,-6.31662 -39.85391,-8.11048 -57.64257,-5.48136 -10.05685,1.48709 -17.34399,4.18219 -22.93304,8.48118 -6.81365,5.24164 -10.59381,13.25774 -9.63121,20.42397 1.84174,13.71659 18.54467,20.24473 25.64038,22.41444 0.0556,0.0169 0.1171,0.0356 0.17258,0.0525 37.08084,11.2746 81.65198,3.67335 120.72354,-20.2913 -3.3034,-1.9013 -6.6218,-3.76823 -9.9442,-5.5785 -16.3839,-8.92327 -31.80292,-15.58703 -46.38548,-20.02089 z m -65.54143,49.68138 c -0.0614,-0.0187 -0.12167,-0.037 -0.18323,-0.0557 -4.97338,-1.52064 -12.15047,-4.32049 -18.09921,-9.01887 -5.99117,-4.73243 -9.45941,-10.33634 -10.30813,-16.65559 -0.59387,-4.41803 0.23632,-9.08305 2.40073,-13.49143 2.00061,-4.07453 5.02302,-7.73884 8.74099,-10.59838 6.14576,-4.72744 14.01654,-7.67046 24.76835,-9.25985 8.88484,-1.31356 18.20917,-1.5616 27.71287,-0.73758 8.75876,0.75987 17.93255,2.45498 27.26821,5.03718 16.10831,4.45354 32.96193,11.53405 51.52073,21.64177 3.9624,2.15893 7.9131,4.39491 11.8371,6.67115 1.0485,-0.6776 2.094,-1.36778 3.133,-2.06937 38.9326,-26.28549 60.6737,-62.99304 58.1554,-98.19154 -2.2252,-31.100445 -24.9612,-61.264035 -56.5764,-75.060325 -28.3997,-12.39207 -62.93716,-12.8488 -97.24862,-1.28288 -27.80577,9.37274 -54.82261,25.83554 -85.02421,51.81266 -0.82887,0.712695 -2.07904,0.618355 -2.79238,-0.21016 -0.71319,-0.82904 -0.61856,-2.08023 0.21032,-2.7929 14.19339,-12.20774 27.50201,-22.17298 40.68706,-30.46654 15.46067,-9.72458 30.39396,-16.95225 45.65421,-22.09718 16.74359,-5.64192 33.68815,-8.5066 50.36073,-8.50927 17.91759,-0.001 34.65209,3.33455 49.73569,9.91686 7.8255,3.41414 15.2708,7.85532 22.1259,13.20123 6.8537,5.34276 12.976,11.47453 18.1952,18.23024 11.0023,14.23334 17.4423,30.477315 18.623,46.976575 0.7136,9.9751 -0.4133,20.13294 -3.3491,30.19062 -2.729,9.34488 -7.0275,18.65071 -12.7792,27.66146 -10.5373,16.50599 -25.6697,31.68872 -43.7614,43.90385 -0.5068,0.34129 -1.0178,0.68304 -1.5275,1.02068 6.0314,3.54698 11.9964,7.16607 17.8541,10.71916 20.0312,12.15013 40.745,24.71407 62.716,33.62796 22.8293,9.25997 66.8444,21.77056 105.1243,1.50683 0.968,-0.51189 2.1659,-0.14324 2.6787,0.82384 0.51,0.96685 0.1409,2.1641 -0.8242,2.67576 -15.5895,8.25197 -33.696,12.00328 -53.8164,11.15165 -12.4647,-0.5272 -25.6814,-2.88775 -38.8973,-6.9061 -5.2663,-1.60124 -10.5311,-3.46503 -15.7529,-5.58208 -22.2645,-9.03318 -43.116,-21.6801 -63.2816,-33.9111 -6.4026,-3.88394 -12.9319,-7.8453 -19.5303,-11.70316 -18.2087,11.43672 -38.1457,19.65013 -58.01801,23.86924 -11.51999,2.44396 -22.99523,3.54706 -34.10906,3.27823 -11.63083,-0.28146 -22.94426,-2.06996 -33.62342,-5.317"
         id="apps_loose_thread"
         inkscape:label="apps_loose_thread" />
      <text
         xml:space="preserve"
         style="font-style:normal;font-variant:normal;font-weight:normal;font-stretch:normal;font-size:42.6667px;line-height:1.25;font-family:'Clear Sans Light';-inkscape-font-specification:'Clear Sans Light, Normal';font-variant-ligatures:normal;font-variant-caps:normal;font-variant-numeric:normal;font-variant-east-asian:normal;letter-spacing:0px;word-spacing:0px;fill:#000000;fill-opacity:1;stroke:none"
         x="1115.2826"
         y="234.26791"
         id="apps_loose_text"
         inkscape:label="apps_loose_text"><tspan
           sodipodi:role="line"
           id="tspan1515"
           x="1115.2826"
           y="234.26791">apps / tests / samples</tspan></text>
    </g>
    <g
       id="tools_loose"
       inkscape:label="tools_loose">
      <path
         style="display:inline;fill:#020505;fill-opacity:1;fill-rule:nonzero;stroke:none;stroke-width:0.114242"
         d="m 788.33195,266.81594 c 11.18107,14.32665 22.36251,23.41418 33.76729,27.51792 6.44781,2.3193 11.48834,2.35699 15.86259,0.119 5.33283,-2.72909 9.45482,-9.43129 10.50225,-17.07636 2.00528,-14.63287 -6.6543,-27.62389 -10.47049,-32.52969 -0.0305,-0.0387 -0.063,-0.0807 -0.0929,-0.119 -19.95733,-25.57189 -48.76379,-34.82447 -77.95643,-25.36307 1.57366,3.18908 3.16423,6.34893 4.77016,9.45274 7.92026,15.30218 15.76903,27.94199 23.61752,37.99848 z m 51.12914,-25.50123 c 0.0326,0.042 0.0658,0.0838 0.0987,0.12639 2.67474,3.43833 6.39686,9.01516 8.94048,16.05246 2.56152,7.08807 3.39205,14.1005 2.46832,20.84198 -0.64543,4.71339 -2.21225,9.13536 -4.53112,12.78861 -2.14327,3.3765 -4.81381,5.94728 -7.72364,7.4358 -4.81003,2.46118 -10.26155,2.45305 -17.1548,-0.0271 -5.69637,-2.04924 -11.41703,-5.34809 -17.00252,-9.80405 -5.14753,-4.1072 -10.33421,-9.32231 -15.41721,-15.50007 -8.77082,-10.65745 -17.39613,-24.26685 -26.36774,-41.60027 -1.91534,-3.70165 -3.80599,-7.47712 -5.67122,-11.28331 -0.79126,0.28894 -1.58358,0.5918 -2.37452,0.90871 -29.63672,11.87158 -51.20403,40.87515 -57.69093,77.58416 -5.73161,32.43512 1.20969,71.72933 17.27249,97.78108 14.42942,23.40101 35.30557,37.01698 58.78268,38.33585 19.02565,1.06902 39.18686,-5.36357 63.44963,-20.24674 0.66584,-0.40823 1.40377,0.16366 1.6484,1.2768 0.24445,1.11361 -0.098,2.34836 -0.76383,2.75656 -11.40238,6.99409 -21.75647,12.04746 -31.6548,15.45002 -11.60662,3.98945 -22.32414,5.64368 -32.76603,5.058 -11.45604,-0.64574 -22.40166,-4.18875 -32.53023,-10.53507 -10.88448,-6.82209 -20.29034,-16.58252 -27.95393,-29.01191 -3.97606,-6.44761 -7.48726,-13.79362 -10.43396,-21.83373 -2.94651,-8.03642 -5.26903,-16.59569 -6.9008,-25.44475 -3.44177,-18.64609 -3.65415,-37.59698 -0.61358,-54.80438 1.83847,-10.40314 4.83648,-20.29103 8.9106,-29.3883 3.78611,-8.4521 8.51673,-16.26685 14.06297,-23.22851 10.16031,-12.75194 22.81062,-22.41003 36.58276,-27.92714 0.38561,-0.15369 0.77381,-0.30617 1.16037,-0.455 -2.85603,-5.89934 -5.65526,-11.84666 -8.40432,-17.68606 -9.40095,-19.96851 -19.12224,-40.61725 -30.43863,-58.03749 -11.75893,-18.0986 -35.64704,-47.566452 -63.51579,-41.562436 -0.70465,0.151359 -1.34833,-0.679303 -1.43957,-1.856805 -0.0894,-1.176241 0.40729,-2.251671 1.11007,-2.403832 11.34951,-2.4447 23.20284,0.640302 35.23128,9.167243 7.45174,5.28211 14.94276,12.71264 22.05573,21.82664 2.83435,3.63179 5.60802,7.52963 8.29795,11.66833 11.46743,17.6532 21.25352,38.43866 30.71764,58.54047 3.00477,6.38296 6.06882,12.89279 9.1985,19.32382 13.66586,-4.68195 27.64745,-5.43195 40.68007,-2.14964 7.55461,1.90463 14.7766,5.15412 21.46659,9.65934 7.00119,4.71496 13.46631,10.83971 19.21395,18.20433"
         id="tools_loose_thread"
         inkscape:label="tools_loose_thread" />
      <text
         xml:space="preserve"
         style="font-style:normal;font-variant:normal;font-weight:normal;font-stretch:normal;font-size:42.6667px;line-height:1.25;font-family:'Clear Sans Light';-inkscape-font-specification:'Clear Sans Light, Normal';font-variant-ligatures:normal;font-variant-caps:normal;font-variant-numeric:normal;font-variant-east-asian:normal;letter-spacing:0px;word-spacing:0px;fill:#000000;fill-opacity:1;stroke:none"
         x="744.15485"
         y="389.01694"
         id="tools_loose_text"
         inkscape:label="tools_loose_text"><tspan
           sodipodi:role="line"
           id="tspan1521"
           x="744.15485"
           y="389.01694">tools</tspan></text>
    </g>
    <g
       id="subsys_loose"
       inkscape:label="subsys_loose">
      <path
         style="display:inline;fill:#020505;fill-opacity:1;fill-rule:nonzero;stroke:none;stroke-width:0.136185"
         d="m 1056.1142,478.30469 c 16.155,14.50847 32.6863,24.20165 49.9182,29.34095 9.7423,2.90483 17.4856,3.54386 24.3682,2.01136 8.3909,-1.86889 15.206,-7.5347 17.3639,-14.43579 4.131,-13.20878 -8.2449,-26.18732 -13.7576,-31.15388 -0.044,-0.039 -0.091,-0.0818 -0.1342,-0.12052 -28.8354,-25.89645 -72.44,-37.85471 -117.9801,-32.65899 2.1896,3.11979 4.4073,6.21476 6.6526,9.26009 11.074,15.0141 22.2291,27.57262 33.569,37.75674 z m 80.4012,-17.30777 c 0.047,0.0427 0.095,0.085 0.1426,0.12798 3.8638,3.48093 9.1838,9.05295 12.588,15.82602 3.4281,6.82187 4.2015,13.36667 2.2985,19.45207 -1.3299,4.25474 -4.0548,8.13116 -7.8803,11.21085 -3.5358,2.84641 -7.8241,4.88901 -12.4025,5.90822 -7.5683,1.68533 -15.9453,1.0242 -26.3606,-2.0818 -8.6069,-2.56652 -17.1615,-6.28445 -25.4254,-11.04974 -7.6159,-4.39219 -15.2125,-9.80738 -22.5807,-16.0949 -12.7142,-10.84708 -24.9931,-24.38988 -37.5371,-41.39697 -2.6779,-3.6319 -5.3126,-7.32868 -7.906,-11.05064 -1.2367,0.17069 -2.476,0.35405 -3.7142,0.5505 -46.39541,7.35765 -81.61881,31.4291 -94.22011,64.39095 -11.1341,29.12424 -3.2851,66.07232 19.531,91.94281 20.4961,23.23832 51.6009,38.25612 87.58461,42.28336 29.1609,3.26385 60.6048,-0.23093 98.9578,-11.00097 1.0525,-0.29537 2.1455,0.31874 2.4416,1.37118 0.2958,1.05285 -0.319,2.14666 -1.3715,2.442 -18.0241,5.06113 -34.2981,8.46422 -49.7533,10.40468 -18.1225,2.27503 -34.7112,2.51034 -50.7157,0.72 -17.5587,-1.96718 -34.12521,-6.53604 -49.23511,-13.5835 -16.2374,-7.57541 -29.9918,-17.67415 -40.8774,-30.01705 -5.6478,-6.40285 -10.5168,-13.57565 -14.4685,-21.31876 -3.9517,-7.73966 -6.907,-15.88506 -8.78,-24.214 -3.9519,-17.55054 -2.9192,-34.99399 2.9874,-50.44492 3.5713,-9.34121 8.8876,-18.06978 15.8009,-25.9427 6.4244,-7.31443 14.2546,-13.92982 23.277,-19.66333 16.5283,-10.50216 36.6612,-17.86219 58.22111,-21.28165 0.6036,-0.095 1.2111,-0.1886 1.8158,-0.27905 -3.9659,-5.76461 -7.8411,-11.5665 -11.64692,-17.2632 -13.01479,-19.48053 -26.47309,-39.62468 -42.61419,-56.99274 -16.7725,-18.04461 -51.3691,-47.99319 -94.6268,-45.81649 -1.0937,0.0546 -2.0233,-0.78602 -2.0791,-1.87923 -0.053,-1.09181 0.7874,-2.02069 1.8783,-2.07628 17.6166,-0.88606 35.6109,3.37068 53.484,12.65019 11.0726,5.74835 22.0515,13.47606 32.3287,22.70575 4.0952,3.67786 8.0781,7.59301 11.915,11.71949 16.3565,17.60026 29.9046,37.87784 43.00691,57.48848 4.1598,6.22693 8.4016,12.57759 12.7499,18.86368 21.3367,-2.66459 42.8766,-1.67741 62.669,2.90207 11.4729,2.65642 22.3382,6.50902 32.2959,11.45202 10.4209,5.17305 19.9169,11.57758 28.2214,19.03568"
         id="subsys_loose_thread"
         inkscape:label="subsys_loose_thread" />
      <text
         xml:space="preserve"
         style="font-style:normal;font-variant:normal;font-weight:normal;font-stretch:normal;font-size:42.6667px;line-height:1.25;font-family:'Clear Sans Light';-inkscape-font-specification:'Clear Sans Light, Normal';font-variant-ligatures:normal;font-variant-caps:normal;font-variant-numeric:normal;font-variant-east-asian:normal;letter-spacing:0px;word-spacing:0px;fill:#000000;fill-opacity:1;stroke:none"
         x="1005.2621"
         y="576.19049"
         id="subsys_loose_text"
         inkscape:label="subsys_loose_text"><tspan
           sodipodi:role="line"
           id="tspan1531"
           x="1005.2621"
           y="576.19049">subsystems (libraries)</tspan></text>
    </g>
    <g
       id="boards_shields_loose"
       inkscape:label="boards_shields_loose">
      <path
         style="display:inline;fill:#020505;fill-opacity:1;fill-rule:nonzero;stroke:none;stroke-width:0.136185"
         d="m 682.2457,609.6924 c 9.41237,19.56749 21.0065,34.82587 34.9827,46.14032 7.90192,6.3961 14.81836,9.93585 21.76595,11.13994 8.47033,1.46744 16.92959,-1.17603 21.55302,-6.73529 8.85001,-10.64023 2.34932,-27.35389 -0.85656,-34.04559 -0.0257,-0.0529 -0.0531,-0.11025 -0.0782,-0.16256 -16.80036,-34.92641 -52.56507,-62.58949 -96.65219,-75.12834 0.83649,3.71857 1.70842,7.42489 2.62477,11.09581 4.52171,18.10002 10.05355,33.96039 16.66051,47.69567 z m 80.93389,14.61565 c 0.0274,0.0573 0.0555,0.11477 0.0831,0.17264 2.247,4.69008 5.04412,11.86824 5.61241,19.42735 0.5718,7.61333 -1.20554,13.95948 -5.28264,18.86159 -2.85001,3.42766 -6.84584,5.97425 -11.5559,7.365 -4.35336,1.28538 -9.0964,1.54095 -13.71795,0.73976 -7.63981,-1.32389 -15.13379,-5.12542 -23.58138,-11.96383 -6.98092,-5.65088 -13.47499,-12.3465 -19.3014,-19.89984 -5.36932,-6.96158 -10.33121,-14.86173 -14.74971,-23.48148 -7.62523,-14.87164 -13.82135,-32.0701 -18.94328,-52.57275 -1.09298,-4.37805 -2.12129,-8.79963 -3.10184,-13.22877 -1.20851,-0.31314 -2.42425,-0.61557 -3.64396,-0.90546 -45.7013,-10.86555 -87.43757,-2.02213 -111.64216,23.65693 -21.38647,22.68938 -28.19988,59.84237 -16.95534,92.45245 10.10176,29.29273 33.14344,55.02451 64.8819,72.45196 25.72051,14.12324 56.12588,22.86659 95.69034,27.5141 1.08568,0.12772 1.86244,1.11179 1.73543,2.19769 -0.12745,1.08616 -1.11248,1.86341 -2.19814,1.73567 -18.59333,-2.18437 -34.93699,-5.23534 -49.96656,-9.32691 -17.62327,-4.798 -33.05155,-10.8979 -47.16822,-18.64832 -15.4864,-8.50582 -29.06458,-19.03942 -40.35199,-31.31012 -12.12889,-13.18825 -21.00093,-27.7641 -26.36569,-43.32247 -2.78381,-8.0712 -4.55429,-16.55776 -5.25941,-25.22232 -0.70642,-8.66136 -0.33701,-17.31844 1.10304,-25.73304 3.02966,-17.73302 10.62753,-33.46874 21.97322,-45.50596 6.85961,-7.27724 15.09939,-13.32347 24.48998,-17.97033 8.72585,-4.31664 18.48534,-7.45156 29.01135,-9.31702 19.28235,-3.4163 40.70106,-2.55449 61.93856,2.49438 0.59429,0.14202 1.19166,0.28683 1.78524,0.43348 -1.47172,-6.84055 -2.84537,-13.68103 -4.19492,-20.39782 -4.6153,-22.969 -9.38795,-46.72051 -17.69846,-68.92682 -8.63667,-23.07233 -29.22093,-63.93956 -70.0479,-78.40072 -1.03209,-0.36603 -1.5715,-1.49732 -1.20676,-2.5294 0.36678,-1.02973 1.49759,-1.56856 2.52746,-1.20451 16.62655,5.88963 31.64379,16.67838 44.63615,32.06525 8.04908,9.53196 15.25772,20.85844 21.24554,33.3065 2.38597,4.96029 4.57773,10.09721 6.55402,15.37395 8.42124,22.50305 13.22611,46.41213 17.87278,69.53476 1.47493,7.34188 2.97857,14.82939 4.60528,22.29776 20.74362,5.66186 40.28444,14.77769 56.84138,26.54962 9.59672,6.82547 18.17608,14.52559 25.50098,22.8883 7.66558,8.75183 14.00696,18.29011 18.84541,28.34881"
         id="boards_shields_loose_thread"
         inkscape:label="boards_shields_loose_thread" />
      <text
         xml:space="preserve"
         style="font-style:normal;font-variant:normal;font-weight:normal;font-stretch:normal;font-size:42.6667px;line-height:1.25;font-family:'Clear Sans Light';-inkscape-font-specification:'Clear Sans Light, Normal';font-variant-ligatures:normal;font-variant-caps:normal;font-variant-numeric:normal;font-variant-east-asian:normal;letter-spacing:0px;word-spacing:0px;fill:#000000;fill-opacity:1;stroke:none"
         x="587.06934"
         y="715.79071"
         id="boards_shields_loose_text"
         inkscape:label="boards_shields_loose_text"><tspan
           sodipodi:role="line"
           id="tspan1367"
           x="587.06934"
           y="715.79071">boards / shields</tspan></text>
    </g>
  </g>
  <g
     id="KiteLine"
     inkscape:label="KiteLine"
     sodipodi:insensitive="true">
    <path
       style="fill:none;fill-rule:evenodd;stroke:#15729d;stroke-width:9.06805;stroke-linecap:butt;stroke-linejoin:miter;stroke-dasharray:none;stroke-opacity:1"
       d="M 3506.9472,-291.50624 2328.9279,277.96766"
       id="kite_line_thread"
       inkscape:connector-type="polyline"
       inkscape:connector-curvature="0"
       sodipodi:nodetypes="cc"
       transform="matrix(-0.55138647,0,0,0.55138647,3181.5005,630.83416)"
       inkscape:label="kite_line_thread" />
    <text
       xml:space="preserve"
       style="font-style:oblique;font-variant:normal;font-weight:normal;font-stretch:normal;font-size:42.6667px;line-height:1.25;font-family:'DejaVu Sans';-inkscape-font-specification:'DejaVu Sans, Oblique';font-variant-ligatures:normal;font-variant-caps:normal;font-variant-numeric:normal;font-variant-east-asian:normal;letter-spacing:0px;word-spacing:0px;fill:#15729d;fill-opacity:1;stroke:none"
       x="1847.2642"
       y="-131.408"
       id="text24717"
       transform="rotate(25.683579)"
       inkscape:label="kite_line_text"><tspan
         sodipodi:role="line"
         id="tspan24715"
         x="1847.2642"
         y="-131.408">kite line</tspan></text>
  </g>
  <g
     id="Bridle"
     inkscape:label="Bridle"
     sodipodi:insensitive="true">
    <g
       id="apps_line"
       inkscape:label="apps_line">
      <path
         style="fill:none;fill-rule:evenodd;stroke:#15729d;stroke-width:9.06805;stroke-linecap:butt;stroke-linejoin:miter;stroke-dasharray:none;stroke-opacity:1"
         d="m 4210.2141,-963.41632 -703.2669,671.91008"
         id="apps_line_thread"
         inkscape:connector-type="polyline"
         inkscape:connector-curvature="0"
         sodipodi:nodetypes="cc"
         transform="matrix(-0.55138647,0,0,0.55138647,3181.5005,630.83416)"
         inkscape:label="apps_line_thread" />
      <text
         xml:space="preserve"
         style="font-style:normal;font-variant:normal;font-weight:normal;font-stretch:normal;font-size:42.6667px;line-height:1.25;font-family:'Clear Sans Light';-inkscape-font-specification:'Clear Sans Light, Normal';font-variant-ligatures:normal;font-variant-caps:normal;font-variant-numeric:normal;font-variant-east-asian:normal;letter-spacing:0px;word-spacing:0px;fill:#15729d;fill-opacity:1;stroke:none"
         x="738.32227"
         y="-542.64734"
         id="apps_line_text"
         inkscape:label="apps_line_text"
         transform="rotate(43.927745)"><tspan
           sodipodi:role="line"
           id="tspan28915"
           x="738.32227"
           y="-542.64734">apps / tests / samples</tspan></text>
    </g>
    <g
       id="tools_line"
       inkscape:label="tools_line">
      <path
         style="fill:none;fill-rule:evenodd;stroke:#15729d;stroke-width:9.06805;stroke-linecap:butt;stroke-linejoin:miter;stroke-dasharray:none;stroke-opacity:1"
         d="M 4586.4403,-971.65965 3506.9472,-291.50624"
         id="tools_line_thread"
         inkscape:connector-type="polyline"
         inkscape:connector-curvature="0"
         sodipodi:nodetypes="cc"
         transform="matrix(-0.55138647,0,0,0.55138647,3181.5005,630.83416)"
         inkscape:label="tools_line_thread" />
      <text
         xml:space="preserve"
         style="font-style:normal;font-variant:normal;font-weight:normal;font-stretch:normal;font-size:42.6667px;line-height:1.25;font-family:'Clear Sans Light';-inkscape-font-specification:'Clear Sans Light, Normal';font-variant-ligatures:normal;font-variant-caps:normal;font-variant-numeric:normal;font-variant-east-asian:normal;letter-spacing:0px;word-spacing:0px;fill:#15729d;fill-opacity:1;stroke:none"
         x="929.75171"
         y="-264.47812"
         id="tools_line_text"
         inkscape:label="tools_line_text"
         transform="rotate(31.545962)"><tspan
           sodipodi:role="line"
           id="tspan27110"
           x="929.75171"
           y="-264.47812">tools</tspan></text>
    </g>
    <g
       id="subsys_line"
       inkscape:label="subsys_line">
      <path
         style="fill:none;fill-rule:evenodd;stroke:#15729d;stroke-width:9.06805;stroke-linecap:butt;stroke-linejoin:miter;stroke-dasharray:none;stroke-opacity:1"
         d="m 4210.5783,-592.42393 -703.6311,300.91769"
         id="subsys_line_thread"
         inkscape:connector-type="polyline"
         inkscape:connector-curvature="0"
         sodipodi:nodetypes="cc"
         transform="matrix(-0.55138647,0,0,0.55138647,3181.5005,630.83416)"
         inkscape:label="subsys_line_thread" />
      <text
         xml:space="preserve"
         style="font-style:normal;font-variant:normal;font-weight:normal;font-stretch:normal;font-size:42.6667px;line-height:1.25;font-family:'Clear Sans Light';-inkscape-font-specification:'Clear Sans Light, Normal';font-variant-ligatures:normal;font-variant-caps:normal;font-variant-numeric:normal;font-variant-east-asian:normal;letter-spacing:0px;word-spacing:0px;fill:#15729d;fill-opacity:1;stroke:none"
         x="937.06287"
         y="-15.609174"
         id="subsys_line_text"
         inkscape:label="subsys_line_text"
         transform="rotate(22.844933)"><tspan
           sodipodi:role="line"
           id="tspan26892"
           x="937.06287"
           y="-15.609174">subsystems</tspan></text>
    </g>
    <g
       id="boards_shields_line"
       inkscape:label="boards_shields_line">
      <path
         style="fill:none;fill-rule:evenodd;stroke:#15729d;stroke-width:9.06805;stroke-linecap:butt;stroke-linejoin:miter;stroke-dasharray:none;stroke-opacity:1"
         d="M 4741.5427,-465.90008 3506.9472,-291.50624"
         id="boards_shields_line_thread"
         inkscape:connector-type="polyline"
         inkscape:connector-curvature="0"
         sodipodi:nodetypes="cc"
         transform="matrix(-0.55138647,0,0,0.55138647,3181.5005,630.83416)"
         inkscape:label="boards_shields_line_thread" />
      <text
         xml:space="preserve"
         style="font-style:normal;font-variant:normal;font-weight:normal;font-stretch:normal;font-size:42.6667px;line-height:1.25;font-family:'Clear Sans Light';-inkscape-font-specification:'Clear Sans Light, Normal';font-variant-ligatures:normal;font-variant-caps:normal;font-variant-numeric:normal;font-variant-east-asian:normal;letter-spacing:0px;word-spacing:0px;fill:#15729d;fill-opacity:1;stroke:none"
         x="720.2475"
         y="332.48572"
         id="boards_shields_line_text"
         inkscape:label="boards_shields_line_text"
         transform="rotate(7.944024)"><tspan
           sodipodi:role="line"
           id="tspan25846"
           x="720.2475"
           y="332.48572">boards / shields</tspan></text>
    </g>
    <circle
       style="fill:#15729d;fill-opacity:1;stroke:#15729d;stroke-width:5;stroke-dasharray:none;stroke-opacity:1"
       id="bridle_point"
       cx="1245.0575"
       cy="471.74677"
       inkscape:label="bridle_point"
       r="28.930647" />
    <text
       xml:space="preserve"
       style="font-style:normal;font-variant:normal;font-weight:bold;font-stretch:normal;font-size:192px;line-height:1.25;font-family:'Clear Sans';-inkscape-font-specification:'Clear Sans, Bold';font-variant-ligatures:normal;font-variant-caps:normal;font-variant-numeric:normal;font-variant-east-asian:normal;letter-spacing:0px;word-spacing:0px;fill:#15729d;fill-opacity:1;stroke:none"
       x="735.9375"
       y="664.59375"
       id="bridle_text"
       inkscape:label="bridle_text"><tspan
         sodipodi:role="line"
         id="tspan24879"
         x="735.9375"
         y="664.59375">Bridle</tspan></text>
  </g>
  <text
     xml:space="preserve"
     style="font-style:italic;font-variant:normal;font-weight:500;font-stretch:normal;font-size:64px;line-height:1.25;font-family:'Clear Sans Medium';-inkscape-font-specification:'Clear Sans Medium, Medium Italic';font-variant-ligatures:normal;font-variant-caps:normal;font-variant-numeric:normal;font-variant-east-asian:normal;letter-spacing:0px;word-spacing:0px;fill:#15729d;fill-opacity:1;stroke:none"
     x="50.968754"
     y="746.53125"
     id="Downstream"
     inkscape:label="Downstream"
     sodipodi:insensitive="true"><tspan
       sodipodi:role="line"
       id="tspan32520"
       x="50.968754"
       y="746.53125">Zephyr Downstream Development by Example </tspan></text>
</svg>
